<svg width="52" height="54" viewBox="0 0 52 54" fill="none" xmlns="http://www.w3.org/2000/svg">
<path d="M45.6417 49.2538C45.5539 50.5391 44.9356 51.7453 43.9124 52.6271C42.8893 53.5088 41.5384 53.9997 40.1346 53.9999H11.875C10.4712 53.9997 9.12029 53.5088 8.09717 52.6271C7.07406 51.7453 6.4557 50.5391 6.36796 49.2538L3.9306 13.4999H48.079L45.6417 49.2538ZM37.5811 30.7124L27.3051 20.7709C27.1392 20.6065 26.9381 20.4753 26.7144 20.3856C26.4906 20.2959 26.249 20.2496 26.0048 20.2496C25.7606 20.2496 25.519 20.2959 25.2953 20.3856C25.0715 20.4753 24.8704 20.6065 24.7045 20.7709L14.4285 30.7124C13.2696 31.8325 14.0905 33.7499 15.73 33.7499H22.3258V45.5624C22.3258 46.01 22.5196 46.4392 22.8646 46.7556C23.2095 47.0721 23.6774 47.2499 24.1653 47.2499H27.8443C28.3322 47.2499 28.8001 47.0721 29.1451 46.7556C29.49 46.4392 29.6838 46.01 29.6838 45.5624V33.7499H36.2797C37.9191 33.7499 38.74 31.8325 37.5811 30.7124ZM2.09108 3.3749H15.8875L16.9682 1.40263C17.1971 0.980982 17.5498 0.626299 17.9864 0.378486C18.4231 0.130672 18.9265 -0.000441426 19.44 -0.000103579H32.5811C33.0934 -0.00191032 33.5959 0.128714 34.0311 0.376803C34.4662 0.624893 34.8164 0.980413 35.0414 1.40263L36.1222 3.3749H49.9185C50.4064 3.3749 50.8743 3.55269 51.2193 3.86915C51.5643 4.18562 51.7581 4.61484 51.7581 5.0624V8.4374C51.7581 8.88495 51.5643 9.31417 51.2193 9.63064C50.8743 9.94711 50.4064 10.1249 49.9185 10.1249H2.09108C1.60321 10.1249 1.13532 9.94711 0.790344 9.63064C0.44537 9.31417 0.251564 8.88495 0.251564 8.4374V5.0624C0.251564 4.61484 0.44537 4.18562 0.790344 3.86915C1.13532 3.55269 1.60321 3.3749 2.09108 3.3749Z" fill="#009019"/>
</svg>
