<svg width="684" height="310" viewBox="0 0 684 310" fill="none" xmlns="http://www.w3.org/2000/svg">
<path opacity="0.28" d="M8.96661 309.521H674.655C679.581 309.521 683.523 305.58 683.523 300.653C683.523 295.727 679.581 291.785 674.655 291.785H8.86804C3.94141 291.785 6.10352e-05 295.727 6.10352e-05 300.653C0.0985718 305.58 4.03998 309.521 8.96661 309.521Z" fill="#848484"/>
<path d="M37.8368 218.477C37.8368 181.823 65.623 151.671 101.588 148.223V139.946H123.166V298.288H101.588V288.731C65.7216 285.282 37.8368 255.131 37.8368 218.477ZM101.686 265.97V171.082C78.6294 174.433 60.4993 194.435 60.4993 218.575C60.4993 242.617 78.6294 262.619 101.686 265.97Z" fill="#F09F54"/>
<path opacity="0.29" d="M101.686 148.223V139.946H123.265V298.288H101.686V288.731C65.7215 285.282 37.9352 255.23 37.9352 218.477C37.8366 181.823 65.7215 151.671 101.686 148.223ZM101.686 281.439V289.617H121.885V147.139H101.686V155.514C70.0569 158.569 44.5369 185.567 44.5369 218.477C44.4384 251.387 69.9584 278.385 101.686 281.439Z" fill="#F09F54"/>
<path d="M37.8368 218.477C37.8368 181.823 65.623 151.671 101.588 148.223V139.946H123.166V298.288H101.588V288.731C65.7216 285.282 37.8368 255.131 37.8368 218.477ZM101.686 265.97V171.082C78.6294 174.433 60.4993 194.435 60.4993 218.575C60.4993 242.617 78.6294 262.619 101.686 265.97Z" stroke="#444E59" stroke-width="4" stroke-miterlimit="10" stroke-linecap="round" stroke-linejoin="round"/>
<path d="M114.594 282.424H123.265" stroke="#444E59" stroke-width="3" stroke-miterlimit="10" stroke-linecap="round" stroke-linejoin="round"/>
<path d="M114.594 266.659H123.265" stroke="#444E59" stroke-width="3" stroke-miterlimit="10" stroke-linecap="round" stroke-linejoin="round"/>
<path d="M114.594 250.796H123.265" stroke="#444E59" stroke-width="3" stroke-miterlimit="10" stroke-linecap="round" stroke-linejoin="round"/>
<path d="M114.594 234.932H123.265" stroke="#444E59" stroke-width="3" stroke-miterlimit="10" stroke-linecap="round" stroke-linejoin="round"/>
<path d="M114.594 219.166H123.265" stroke="#444E59" stroke-width="3" stroke-miterlimit="10" stroke-linecap="round" stroke-linejoin="round"/>
<path d="M114.594 203.303H123.265" stroke="#444E59" stroke-width="3" stroke-miterlimit="10" stroke-linecap="round" stroke-linejoin="round"/>
<path d="M114.594 187.439H123.265" stroke="#444E59" stroke-width="3" stroke-miterlimit="10" stroke-linecap="round" stroke-linejoin="round"/>
<path d="M114.594 171.575H123.265" stroke="#444E59" stroke-width="3" stroke-miterlimit="10" stroke-linecap="round" stroke-linejoin="round"/>
<path d="M114.594 155.81H123.265" stroke="#444E59" stroke-width="3" stroke-miterlimit="10" stroke-linecap="round" stroke-linejoin="round"/>
<path d="M138.439 59.8388H171.053V297.894H138.439V59.8388Z" fill="#F09F54"/>
<path d="M138.439 59.8388H171.053V297.894H138.439V59.8388Z" fill="#F09F54"/>
<path opacity="0.29" d="M138.439 59.8388H152.628V297.894H138.439V59.8388Z" fill="#F09F54"/>
<path d="M138.439 59.8388H171.053V297.894H138.439V59.8388Z" stroke="#444E59" stroke-width="4" stroke-miterlimit="10" stroke-linecap="round" stroke-linejoin="round"/>
<path d="M159.722 273.853H171.053" stroke="#444E59" stroke-width="3" stroke-miterlimit="10" stroke-linecap="round" stroke-linejoin="round"/>
<path d="M164.057 285.185H171.053" stroke="#444E59" stroke-width="3" stroke-miterlimit="10" stroke-linecap="round" stroke-linejoin="round"/>
<path d="M159.722 251.191H171.053" stroke="#444E59" stroke-width="3" stroke-miterlimit="10" stroke-linecap="round" stroke-linejoin="round"/>
<path d="M164.057 262.522H171.053" stroke="#444E59" stroke-width="3" stroke-miterlimit="10" stroke-linecap="round" stroke-linejoin="round"/>
<path d="M159.722 228.528H171.053" stroke="#444E59" stroke-width="3" stroke-miterlimit="10" stroke-linecap="round" stroke-linejoin="round"/>
<path d="M164.057 239.859H171.053" stroke="#444E59" stroke-width="3" stroke-miterlimit="10" stroke-linecap="round" stroke-linejoin="round"/>
<path d="M159.722 205.766H171.053" stroke="#444E59" stroke-width="3" stroke-miterlimit="10" stroke-linecap="round" stroke-linejoin="round"/>
<path d="M164.057 217.097H171.053" stroke="#444E59" stroke-width="3" stroke-miterlimit="10" stroke-linecap="round" stroke-linejoin="round"/>
<path d="M159.722 183.103H171.053" stroke="#444E59" stroke-width="3" stroke-miterlimit="10" stroke-linecap="round" stroke-linejoin="round"/>
<path d="M164.057 194.435H171.053" stroke="#444E59" stroke-width="3" stroke-miterlimit="10" stroke-linecap="round" stroke-linejoin="round"/>
<path d="M159.722 160.441H171.053" stroke="#444E59" stroke-width="3" stroke-miterlimit="10" stroke-linecap="round" stroke-linejoin="round"/>
<path d="M164.057 171.772H171.053" stroke="#444E59" stroke-width="3" stroke-miterlimit="10" stroke-linecap="round" stroke-linejoin="round"/>
<path d="M159.722 137.778H171.053" stroke="#444E59" stroke-width="3" stroke-miterlimit="10" stroke-linecap="round" stroke-linejoin="round"/>
<path d="M164.057 149.11H171.053" stroke="#444E59" stroke-width="3" stroke-miterlimit="10" stroke-linecap="round" stroke-linejoin="round"/>
<path d="M159.722 115.116H171.053" stroke="#444E59" stroke-width="3" stroke-miterlimit="10" stroke-linecap="round" stroke-linejoin="round"/>
<path d="M164.057 126.447H171.053" stroke="#444E59" stroke-width="3" stroke-miterlimit="10" stroke-linecap="round" stroke-linejoin="round"/>
<path d="M159.722 92.4532H171.053" stroke="#444E59" stroke-width="3" stroke-miterlimit="10" stroke-linecap="round" stroke-linejoin="round"/>
<path d="M164.057 103.784H171.053" stroke="#444E59" stroke-width="3" stroke-miterlimit="10" stroke-linecap="round" stroke-linejoin="round"/>
<path d="M159.722 69.7906H171.053" stroke="#444E59" stroke-width="3" stroke-miterlimit="10" stroke-linecap="round" stroke-linejoin="round"/>
<path d="M164.057 81.1219H171.053" stroke="#444E59" stroke-width="3" stroke-miterlimit="10" stroke-linecap="round" stroke-linejoin="round"/>
<path d="M218.645 117.382H231.355V150.982H218.645V117.382Z" fill="#848484"/>
<path opacity="0.25" d="M226.626 117.382H231.355V150.982H226.626V117.382Z" fill="#848484"/>
<path d="M218.645 117.382H231.355V150.982H218.645V117.382Z" stroke="#444E59" stroke-width="4" stroke-miterlimit="10" stroke-linecap="round" stroke-linejoin="round"/>
<path d="M222.093 151.08H227.907V167.338H222.093V151.08Z" fill="white"/>
<path d="M222.093 151.08H227.907V167.338H222.093V151.08Z" stroke="#444E59" stroke-width="4" stroke-miterlimit="10" stroke-linecap="round" stroke-linejoin="round"/>
<path d="M234.804 181.823L264.364 297.796L219.433 183.399L234.804 181.823Z" fill="white"/>
<path d="M234.804 181.823L264.364 297.796L219.433 183.399L234.804 181.823Z" stroke="#444E59" stroke-width="4" stroke-miterlimit="10" stroke-linecap="round" stroke-linejoin="round"/>
<path d="M215.097 181.823L185.538 297.796L230.37 183.399L215.097 181.823Z" fill="white"/>
<path d="M215.097 181.823L185.538 297.796L230.37 183.399L215.097 181.823Z" stroke="#444E59" stroke-width="4" stroke-miterlimit="10" stroke-linecap="round" stroke-linejoin="round"/>
<path d="M224.951 204.584C214.067 204.584 205.244 195.761 205.244 184.877C205.244 173.994 214.067 165.17 224.951 165.17C235.835 165.17 244.657 173.994 244.657 184.877C244.657 195.761 235.835 204.584 224.951 204.584Z" fill="#71A850"/>
<path opacity="0.4" d="M239.139 184.877C239.139 174.925 231.749 166.747 222.192 165.368C223.079 165.269 223.965 165.17 224.951 165.17C235.789 165.17 244.657 174.038 244.657 184.877C244.657 195.716 235.789 204.584 224.951 204.584C224.064 204.584 223.079 204.485 222.192 204.386C231.749 203.007 239.139 194.829 239.139 184.877Z" fill="#71A850"/>
<path d="M224.951 204.584C214.067 204.584 205.244 195.761 205.244 184.877C205.244 173.994 214.067 165.17 224.951 165.17C235.835 165.17 244.657 173.994 244.657 184.877C244.657 195.761 235.835 204.584 224.951 204.584Z" stroke="#444E59" stroke-width="4" stroke-miterlimit="10" stroke-linecap="round" stroke-linejoin="round"/>
<path d="M224.951 191.577C221.251 191.577 218.25 188.578 218.25 184.877C218.25 181.177 221.251 178.177 224.951 178.177C228.652 178.177 231.651 181.177 231.651 184.877C231.651 188.578 228.652 191.577 224.951 191.577Z" fill="#444E59"/>
<path d="M224.951 191.577C221.251 191.577 218.25 188.578 218.25 184.877C218.25 181.177 221.251 178.177 224.951 178.177C228.652 178.177 231.651 181.177 231.651 184.877C231.651 188.578 228.652 191.577 224.951 191.577Z" stroke="#444E59" stroke-width="4" stroke-miterlimit="10" stroke-linecap="round" stroke-linejoin="round"/>
<path d="M296.091 297.599H426.155C433.742 297.599 439.949 291.391 439.949 283.804V15.7946C439.949 8.20757 433.742 2 426.155 2H296.091C288.504 2 282.297 8.20757 282.297 15.7946V283.804C282.297 291.391 288.504 297.599 296.091 297.599Z" fill="#848484"/>
<path opacity="0.28" d="M296.091 2H304.368C296.781 2 290.574 8.20757 290.574 15.7946V283.804C290.574 291.391 296.781 297.599 304.368 297.599H295.993C288.406 297.599 282.198 291.391 282.198 283.804V15.7946C282.297 8.10904 288.504 2 296.091 2Z" fill="#848484"/>
<path opacity="0.48" d="M431.771 283.804V15.7946C431.771 8.20757 425.564 2 417.977 2H426.155C433.742 2 439.949 8.20757 439.949 15.7946V283.804C439.949 291.391 433.742 297.599 426.155 297.599H417.977C425.564 297.599 431.771 291.391 431.771 283.804Z" fill="#848484"/>
<path d="M296.091 297.599H426.155C433.742 297.599 439.949 291.391 439.949 283.804V15.7946C439.949 8.20757 433.742 2 426.155 2H296.091C288.504 2 282.297 8.20757 282.297 15.7946V283.804C282.297 291.391 288.504 297.599 296.091 297.599Z" stroke="#444E59" stroke-width="4" stroke-miterlimit="10" stroke-linecap="round" stroke-linejoin="round"/>
<path d="M282.278 259.652V38.938H439.931V259.652H282.278Z" fill="#E9FBFF"/>
<path d="M283.085 110.091H295.402C302.102 110.091 307.521 104.671 307.521 97.971V67.9185C307.521 61.2183 302.102 55.7989 295.402 55.7989H283.085V110.091Z" fill="#C9C9C9"/>
<path d="M430.884 231.877H439.949V136.005H430.884C424.086 136.005 418.568 141.523 418.568 148.321V219.561C418.666 226.359 424.086 231.877 430.884 231.877Z" fill="#C9C9C9"/>
<path d="M282.278 259.652V38.938H439.931V259.652H282.278Z" stroke="#444E59" stroke-width="4" stroke-miterlimit="10" stroke-linecap="round" stroke-linejoin="round"/>
<path d="M339.446 21.7066H332.549" stroke="#444E59" stroke-width="5" stroke-miterlimit="10" stroke-linecap="round" stroke-linejoin="round"/>
<path d="M389.698 21.7066H350.285" stroke="#444E59" stroke-width="5" stroke-miterlimit="10" stroke-linecap="round" stroke-linejoin="round"/>
<path opacity="0.29" d="M361.123 287.154C355.137 287.154 350.285 282.301 350.285 276.316C350.285 270.33 355.137 265.477 361.123 265.477C367.109 265.477 371.962 270.33 371.962 276.316C371.962 282.301 367.109 287.154 361.123 287.154Z" fill="#848484"/>
<path d="M361.123 284.592C356.552 284.592 352.846 280.886 352.846 276.315C352.846 271.745 356.552 268.039 361.123 268.039C365.694 268.039 369.4 271.745 369.4 276.315C369.4 280.886 365.694 284.592 361.123 284.592Z" fill="#444E59"/>
<g opacity="0.3">
<g opacity="0.3">
<g opacity="0.3">
<path opacity="0.3" d="M397.088 233.257H412.853C417.188 233.257 420.736 229.71 420.736 225.374V209.609C420.736 205.273 417.188 201.726 412.853 201.726H397.088C392.752 201.726 389.205 205.273 389.205 209.609V225.374C389.205 229.71 392.752 233.257 397.088 233.257Z" stroke="#444E59" stroke-width="2" stroke-linecap="round" stroke-linejoin="round" stroke-dasharray="4.08 4.08"/>
</g>
<g opacity="0.3">
<path opacity="0.3" d="M309.886 233.257H325.651C329.987 233.257 333.534 229.71 333.534 225.374V209.609C333.534 205.273 329.987 201.726 325.651 201.726H309.886C305.551 201.726 302.003 205.273 302.003 209.609V225.374C302.003 229.71 305.551 233.257 309.886 233.257Z" stroke="#444E59" stroke-width="2" stroke-linecap="round" stroke-linejoin="round" stroke-dasharray="4.08 4.08"/>
</g>
<g opacity="0.3">
<path opacity="0.3" d="M353.241 233.257H369.006C373.341 233.257 376.888 229.71 376.888 225.374V209.609C376.888 205.273 373.341 201.726 369.006 201.726H353.241C348.905 201.726 345.358 205.273 345.358 209.609V225.374C345.358 229.71 348.905 233.257 353.241 233.257Z" stroke="#444E59" stroke-width="2" stroke-linecap="round" stroke-linejoin="round" stroke-dasharray="4.08 4.08"/>
</g>
</g>
<g opacity="0.3">
<g opacity="0.3">
<path opacity="0.3" d="M397.088 185.961H412.853C417.188 185.961 420.736 182.414 420.736 178.078V162.313C420.736 157.978 417.188 154.43 412.853 154.43H397.088C392.752 154.43 389.205 157.978 389.205 162.313V178.078C389.205 182.414 392.752 185.961 397.088 185.961Z" stroke="#444E59" stroke-width="2" stroke-linecap="round" stroke-linejoin="round" stroke-dasharray="4.08 4.08"/>
</g>
<g opacity="0.3">
<path opacity="0.3" d="M309.886 185.961H325.651C329.987 185.961 333.534 182.414 333.534 178.078V162.313C333.534 157.978 329.987 154.43 325.651 154.43H309.886C305.551 154.43 302.003 157.978 302.003 162.313V178.078C302.003 182.414 305.551 185.961 309.886 185.961Z" stroke="#444E59" stroke-width="2" stroke-linecap="round" stroke-linejoin="round" stroke-dasharray="4.08 4.08"/>
</g>
<g opacity="0.3">
<path opacity="0.3" d="M353.241 185.961H369.006C373.341 185.961 376.888 182.414 376.888 178.078V162.313C376.888 157.978 373.341 154.43 369.006 154.43H353.241C348.905 154.43 345.358 157.978 345.358 162.313V178.078C345.358 182.414 348.905 185.961 353.241 185.961Z" stroke="#444E59" stroke-width="2" stroke-linecap="round" stroke-linejoin="round" stroke-dasharray="4.08 4.08"/>
</g>
</g>
<g opacity="0.3">
<g opacity="0.3">
<path opacity="0.3" d="M397.088 138.665H412.853C417.188 138.665 420.736 135.118 420.736 130.782V115.017C420.736 110.682 417.188 107.135 412.853 107.135H397.088C392.752 107.135 389.205 110.682 389.205 115.017V130.782C389.205 135.118 392.752 138.665 397.088 138.665Z" stroke="#444E59" stroke-width="2" stroke-linecap="round" stroke-linejoin="round" stroke-dasharray="4.08 4.08"/>
</g>
<g opacity="0.3">
<path opacity="0.3" d="M309.886 138.665H325.651C329.987 138.665 333.534 135.118 333.534 130.782V115.017C333.534 110.682 329.987 107.135 325.651 107.135H309.886C305.551 107.135 302.003 110.682 302.003 115.017V130.782C302.003 135.118 305.551 138.665 309.886 138.665Z" stroke="#444E59" stroke-width="2" stroke-linecap="round" stroke-linejoin="round" stroke-dasharray="4.08 4.08"/>
</g>
<g opacity="0.3">
<path opacity="0.3" d="M353.241 138.665H369.006C373.341 138.665 376.888 135.118 376.888 130.782V115.017C376.888 110.682 373.341 107.135 369.006 107.135H353.241C348.905 107.135 345.358 110.682 345.358 115.017V130.782C345.358 135.118 348.905 138.665 353.241 138.665Z" stroke="#444E59" stroke-width="2" stroke-linecap="round" stroke-linejoin="round" stroke-dasharray="4.08 4.08"/>
</g>
</g>
<g opacity="0.3">
<g opacity="0.3">
<path opacity="0.3" d="M397.088 91.3693H412.853C417.188 91.3693 420.736 87.8221 420.736 83.4867V67.7214C420.736 63.386 417.188 59.8388 412.853 59.8388H397.088C392.752 59.8388 389.205 63.386 389.205 67.7214V83.4867C389.205 87.8221 392.752 91.3693 397.088 91.3693Z" stroke="#444E59" stroke-width="2" stroke-linecap="round" stroke-linejoin="round" stroke-dasharray="4.08 4.08"/>
</g>
<g opacity="0.3">
<path opacity="0.3" d="M309.886 91.3693H325.651C329.987 91.3693 333.534 87.8221 333.534 83.4867V67.7214C333.534 63.386 329.987 59.8388 325.651 59.8388H309.886C305.551 59.8388 302.003 63.386 302.003 67.7214V83.4867C302.003 87.8221 305.551 91.3693 309.886 91.3693Z" stroke="#444E59" stroke-width="2" stroke-linecap="round" stroke-linejoin="round" stroke-dasharray="4.08 4.08"/>
</g>
<g opacity="0.3">
<path opacity="0.3" d="M353.24 91.3693H369.006C373.341 91.3693 376.888 87.8221 376.888 83.4867V67.7214C376.888 63.386 373.341 59.8388 369.006 59.8388H353.24C348.905 59.8388 345.358 63.386 345.358 67.7214V83.4867C345.358 87.8221 348.905 91.3693 353.24 91.3693Z" stroke="#444E59" stroke-width="2" stroke-linecap="round" stroke-linejoin="round" stroke-dasharray="4.08 4.08"/>
</g>
</g>
</g>
<path d="M397.088 233.257H412.853C417.188 233.257 420.736 229.71 420.736 225.374V209.609C420.736 205.273 417.188 201.726 412.853 201.726H397.088C392.752 201.726 389.205 205.273 389.205 209.609V225.374C389.205 229.71 392.752 233.257 397.088 233.257Z" fill="#71A850"/>
<path opacity="0.52" d="M397.088 201.726H412.853C416.006 201.726 418.765 203.598 419.947 206.259L389.205 211.776V209.609C389.205 205.273 392.752 201.726 397.088 201.726Z" fill="#5F8C42"/>
<path d="M397.088 233.257H412.853C417.188 233.257 420.736 229.71 420.736 225.374V209.609C420.736 205.273 417.188 201.726 412.853 201.726H397.088C392.752 201.726 389.205 205.273 389.205 209.609V225.374C389.205 229.71 392.752 233.257 397.088 233.257Z" stroke="#444E59" stroke-width="4" stroke-miterlimit="10" stroke-linecap="round" stroke-linejoin="round"/>
<path d="M353.241 233.257H369.006C373.341 233.257 376.888 229.71 376.888 225.374V209.609C376.888 205.273 373.341 201.726 369.006 201.726H353.241C348.905 201.726 345.358 205.273 345.358 209.609V225.374C345.358 229.71 348.905 233.257 353.241 233.257Z" fill="#F09F54"/>
<path opacity="0.52" d="M353.241 201.726H369.006C372.159 201.726 374.918 203.598 376.1 206.259L345.358 211.776V209.609C345.358 205.273 348.905 201.726 353.241 201.726Z" fill="#D38444"/>
<path d="M353.241 233.257H369.006C373.341 233.257 376.888 229.71 376.888 225.374V209.609C376.888 205.273 373.341 201.726 369.006 201.726H353.241C348.905 201.726 345.358 205.273 345.358 209.609V225.374C345.358 229.71 348.905 233.257 353.241 233.257Z" stroke="#444E59" stroke-width="4" stroke-miterlimit="10" stroke-linecap="round" stroke-linejoin="round"/>
<path d="M309.886 185.961H325.651C329.987 185.961 333.534 182.414 333.534 178.078V162.313C333.534 157.978 329.987 154.43 325.651 154.43H309.886C305.551 154.43 302.003 157.978 302.003 162.313V178.078C302.003 182.414 305.551 185.961 309.886 185.961Z" fill="#2FA9ED"/>
<path opacity="0.52" d="M309.886 154.43H325.651C328.804 154.43 331.563 156.302 332.746 158.963L302.003 164.481V162.313C302.003 157.978 305.551 154.43 309.886 154.43Z" fill="#288FBC"/>
<path d="M309.886 185.961H325.651C329.987 185.961 333.534 182.414 333.534 178.078V162.313C333.534 157.978 329.987 154.43 325.651 154.43H309.886C305.551 154.43 302.003 157.978 302.003 162.313V178.078C302.003 182.414 305.551 185.961 309.886 185.961Z" stroke="#444E59" stroke-width="4" stroke-miterlimit="10" stroke-linecap="round" stroke-linejoin="round"/>
<path d="M353.241 138.665H369.006C373.341 138.665 376.888 135.118 376.888 130.782V115.017C376.888 110.682 373.341 107.135 369.006 107.135H353.241C348.905 107.135 345.358 110.682 345.358 115.017V130.782C345.358 135.118 348.905 138.665 353.241 138.665Z" fill="#E7534E"/>
<path opacity="0.52" d="M353.241 107.135H369.006C372.159 107.135 374.918 109.007 376.1 111.667L345.358 117.185V115.017C345.358 110.682 348.905 107.135 353.241 107.135Z" fill="#BF4040"/>
<path d="M353.241 138.665H369.006C373.341 138.665 376.888 135.118 376.888 130.782V115.017C376.888 110.682 373.341 107.135 369.006 107.135H353.241C348.905 107.135 345.358 110.682 345.358 115.017V130.782C345.358 135.118 348.905 138.665 353.241 138.665Z" stroke="#444E59" stroke-width="4" stroke-miterlimit="10" stroke-linecap="round" stroke-linejoin="round"/>
<path d="M320.331 163.298L311.265 168.521C309.985 169.309 309.985 171.181 311.265 171.871L320.331 177.093C321.611 177.881 323.286 176.896 323.286 175.418V164.973C323.286 163.495 321.611 162.51 320.331 163.298Z" fill="white"/>
<path d="M356.985 211.382H365.262C367.035 211.382 368.415 212.86 368.415 214.535V220.644C368.415 222.418 366.937 223.798 365.262 223.798H364.966L365.656 226.556C365.754 226.754 365.459 226.951 365.262 226.754L361.025 223.798H356.788C355.014 223.798 353.635 222.32 353.635 220.644V214.535C353.733 212.762 355.211 211.382 356.985 211.382Z" fill="white"/>
<path d="M411.079 217.491L407.434 221.137C406.941 221.63 406.153 221.63 405.66 221.137L397.482 212.959" stroke="white" stroke-width="4" stroke-miterlimit="10" stroke-linecap="round" stroke-linejoin="round"/>
<path d="M361.123 130.29C357.042 130.29 353.733 126.982 353.733 122.9C353.733 118.819 357.042 115.51 361.123 115.51C365.204 115.51 368.513 118.819 368.513 122.9C368.513 126.982 365.204 130.29 361.123 130.29Z" stroke="white" stroke-width="4" stroke-miterlimit="10" stroke-linecap="round" stroke-linejoin="round"/>
<path d="M420.637 84.472L420.834 69.6921L430.687 69.7906C431.279 67.9185 431.968 66.2434 432.954 64.5684L426.056 57.474L436.599 47.128L443.497 54.2224C445.172 53.3356 446.945 52.6459 448.817 52.1532L448.916 42.2999L463.696 42.497L463.597 52.3503C465.469 52.9415 467.144 53.6312 468.82 54.6166L475.914 47.7193L486.26 58.2622L479.165 65.1595C480.052 66.8346 480.742 68.6082 481.235 70.4804L491.088 70.5789L490.891 85.3588L481.038 85.2603C480.446 87.1324 479.757 88.8075 478.771 90.4825L485.669 97.5769L475.126 107.923L468.228 100.828C466.553 101.715 464.78 102.405 462.908 102.898L462.809 112.751L448.029 112.554L448.128 102.701C446.256 102.109 444.58 101.42 442.905 100.434L435.811 107.332L425.465 96.7886L432.559 89.8913C431.673 88.2162 430.983 86.4427 430.49 84.5705L420.637 84.472ZM455.616 89.0045C462.021 89.1031 467.144 83.9793 467.243 77.5747C467.342 71.1701 462.218 66.0464 455.813 65.9478C449.409 65.8493 444.285 70.973 444.186 77.3777C444.186 83.7823 449.31 88.906 455.616 89.0045Z" fill="white"/>
<path d="M420.637 84.472L420.834 69.6921L430.687 69.7906C431.279 67.9185 431.968 66.2434 432.954 64.5684L426.056 57.474L436.599 47.128L443.497 54.2224C445.172 53.3356 446.945 52.6459 448.817 52.1532L448.916 42.2999L463.696 42.497L463.597 52.3503C465.469 52.9415 467.144 53.6312 468.82 54.6166L475.914 47.7193L486.26 58.2622L479.165 65.1595C480.052 66.8346 480.742 68.6082 481.235 70.4804L491.088 70.5789L490.891 85.3588L481.038 85.2603C480.446 87.1324 479.757 88.8075 478.771 90.4825L485.669 97.5769L475.126 107.923L468.228 100.828C466.553 101.715 464.78 102.405 462.908 102.898L462.809 112.751L448.029 112.554L448.128 102.701C446.256 102.109 444.58 101.42 442.905 100.434L435.811 107.332L425.465 96.7886L432.559 89.8913C431.673 88.2162 430.983 86.4427 430.49 84.5705L420.637 84.472ZM455.616 89.0045C462.021 89.1031 467.144 83.9793 467.243 77.5747C467.342 71.1701 462.218 66.0464 455.813 65.9478C449.409 65.8493 444.285 70.973 444.186 77.3777C444.186 83.7823 449.31 88.906 455.616 89.0045Z" fill="#F09F54"/>
<path d="M420.637 84.472L420.834 69.6921L430.687 69.7906C431.279 67.9185 431.968 66.2434 432.954 64.5684L426.056 57.474L436.599 47.128L443.497 54.2224C445.172 53.3356 446.945 52.6459 448.817 52.1532L448.916 42.2999L463.696 42.497L463.597 52.3503C465.469 52.9415 467.144 53.6312 468.82 54.6166L475.914 47.7193L486.26 58.2622L479.165 65.1595C480.052 66.8346 480.742 68.6082 481.235 70.4804L491.088 70.5789L490.891 85.3588L481.038 85.2603C480.446 87.1324 479.757 88.8075 478.771 90.4825L485.669 97.5769L475.126 107.923L468.228 100.828C466.553 101.715 464.78 102.405 462.908 102.898L462.809 112.751L448.029 112.554L448.128 102.701C446.256 102.109 444.58 101.42 442.905 100.434L435.811 107.332L425.465 96.7886L432.559 89.8913C431.673 88.2162 430.983 86.4427 430.49 84.5705L420.637 84.472ZM455.616 89.0045C462.021 89.1031 467.144 83.9793 467.243 77.5747C467.342 71.1701 462.218 66.0464 455.813 65.9478C449.409 65.8493 444.285 70.973 444.186 77.3777C444.186 83.7823 449.31 88.906 455.616 89.0045Z" fill="#F09F54"/>
<g opacity="0.29">
<path opacity="0.29" d="M424.381 69.7906C424.381 69.7906 424.381 69.8892 424.381 69.7906H420.736V69.6921L424.381 69.7906Z" fill="#F09F54"/>
<path opacity="0.29" d="M437.191 54.321L433.348 50.3796L436.501 47.2266L441.624 52.4488C440.048 52.9415 438.57 53.5327 437.191 54.321Z" fill="#F09F54"/>
<path opacity="0.29" d="M449.704 65.9478C450.788 65.9478 451.773 66.1449 452.66 66.342C447.832 67.7214 444.285 72.0569 444.285 77.2791C444.186 82.5999 447.832 87.1324 452.66 88.5119C451.675 88.8075 450.492 89.0045 449.409 88.906C443.004 88.8075 437.979 83.5852 437.979 77.2791C437.979 70.973 443.3 65.9478 449.704 65.9478Z" fill="#F09F54"/>
<path opacity="0.29" d="M464.386 52.6459L462.415 54.518C460.74 53.6312 459.065 52.843 457.193 52.2518L457.291 42.3985L448.817 42.3V42.2014L463.597 42.3985L463.499 52.2518C463.696 52.4489 464.09 52.5474 464.386 52.6459Z" fill="#F09F54"/>
<path opacity="0.29" d="M456.7 102.799C458.572 102.306 460.346 101.617 462.021 100.73L463.794 102.602C463.499 102.701 463.203 102.799 462.908 102.898L462.809 112.751L456.601 112.652L456.7 102.799Z" fill="#F09F54"/>
<path opacity="0.29" d="M484.683 70.4804L474.83 70.3818C474.337 68.5097 473.648 66.7361 472.761 65.0611L479.855 58.1638L472.564 50.7738L475.717 47.6207L486.063 58.1638L478.968 65.0611C479.855 66.7361 480.545 68.5097 481.038 70.3818L490.891 70.4804L490.694 85.2603L484.486 85.1618L484.683 70.4804Z" fill="#F09F54"/>
<path opacity="0.29" d="M436.698 100.434C438.077 101.223 439.457 101.814 440.935 102.307L435.811 107.332L432.757 104.179L436.698 100.434Z" fill="#F09F54"/>
<path opacity="0.29" d="M479.363 97.3798L472.465 90.2854C473.352 88.6104 474.14 86.9353 474.732 85.0632L480.939 85.1618C480.348 86.9353 479.658 88.7089 478.771 90.2854L485.669 97.3798L475.126 107.726L472.071 104.573L479.363 97.3798Z" fill="#F09F54"/>
</g>
<path d="M420.637 84.472L420.834 69.6921L430.687 69.7906C431.279 67.9185 431.968 66.2434 432.954 64.5684L426.056 57.474L436.599 47.128L443.497 54.2224C445.172 53.3356 446.945 52.6459 448.817 52.1532L448.916 42.2999L463.696 42.497L463.597 52.3503C465.469 52.9415 467.144 53.6312 468.82 54.6166L475.914 47.7193L486.26 58.2622L479.165 65.1596C480.052 66.8346 480.742 68.6082 481.235 70.4803L491.088 70.5789L490.891 85.3588L481.038 85.2603C480.446 87.1324 479.757 88.8075 478.771 90.4825L485.669 97.5769L475.126 107.923L468.228 100.828C466.553 101.715 464.78 102.405 462.908 102.898L462.809 112.751L448.029 112.554L448.128 102.701C446.256 102.109 444.58 101.42 442.905 100.434L435.811 107.332L425.465 96.7886L432.559 89.8913C431.673 88.2162 430.983 86.4427 430.49 84.5705L420.637 84.472ZM455.616 89.0045C462.021 89.1031 467.144 83.9793 467.243 77.5747C467.342 71.1701 462.218 66.0464 455.813 65.9478C449.409 65.8493 444.285 70.973 444.186 77.3777C444.186 83.7823 449.31 88.906 455.616 89.0045Z" stroke="#444E59" stroke-width="4" stroke-miterlimit="10" stroke-linecap="round" stroke-linejoin="round"/>
<path d="M482.22 297.599H604.105C608.145 297.599 611.397 294.347 611.397 290.307V206.948C611.397 202.909 608.145 199.657 604.105 199.657H482.121C478.082 199.657 474.83 202.909 474.83 206.948V290.307C474.929 294.347 478.18 297.599 482.22 297.599Z" fill="#444E59"/>
<path d="M474.929 215.521H611.397V206.948C611.397 202.909 608.145 199.657 604.105 199.657H482.121C478.082 199.657 474.83 202.909 474.83 206.948V215.521H474.929Z" fill="#BCBCBC"/>
<path d="M482.22 297.599H604.105C608.145 297.599 611.397 294.347 611.397 290.307V206.948C611.397 202.909 608.145 199.657 604.105 199.657H482.121C478.082 199.657 474.83 202.909 474.83 206.948V290.307C474.929 294.347 478.18 297.599 482.22 297.599Z" stroke="#444E59" stroke-width="4" stroke-miterlimit="10" stroke-linecap="round" stroke-linejoin="round"/>
<path d="M482.22 297.599H604.105C608.145 297.599 611.397 294.347 611.397 290.307V206.948C611.397 202.909 608.145 199.657 604.105 199.657H482.121C478.082 199.657 474.83 202.909 474.83 206.948V290.307C474.929 294.347 478.18 297.599 482.22 297.599Z" stroke="#444E59" stroke-width="4" stroke-miterlimit="10" stroke-linecap="round" stroke-linejoin="round"/>
<path d="M474.929 215.521H611.397V206.948C611.397 202.909 608.145 199.657 604.105 199.657H482.121C478.082 199.657 474.83 202.909 474.83 206.948V215.521H474.929Z" stroke="#444E59" stroke-width="4" stroke-miterlimit="10" stroke-linecap="round" stroke-linejoin="round"/>
<path d="M592.577 285.085H577.206" stroke="white" stroke-width="4" stroke-miterlimit="10" stroke-linecap="round" stroke-linejoin="round"/>
<path d="M603.415 285.085H602.332" stroke="white" stroke-width="4" stroke-miterlimit="10" stroke-linecap="round" stroke-linejoin="round"/>
<path d="M592.577 276.611H553.656" stroke="white" stroke-width="4" stroke-miterlimit="10" stroke-linecap="round" stroke-linejoin="round"/>
<path d="M603.415 276.611H602.332" stroke="white" stroke-width="4" stroke-miterlimit="10" stroke-linecap="round" stroke-linejoin="round"/>
<path d="M535.132 268.039H524.491" stroke="#64BDFF" stroke-width="4" stroke-miterlimit="10" stroke-linecap="round" stroke-linejoin="round"/>
<path d="M564.101 268.039H544.394" stroke="white" stroke-width="4" stroke-miterlimit="10" stroke-linecap="round" stroke-linejoin="round"/>
<path d="M592.577 268.039H573.067" stroke="#FF5F5F" stroke-width="4" stroke-miterlimit="10" stroke-linecap="round" stroke-linejoin="round"/>
<path d="M603.415 268.039H602.332" stroke="white" stroke-width="4" stroke-miterlimit="10" stroke-linecap="round" stroke-linejoin="round"/>
<path d="M559.765 259.565H512.273" stroke="white" stroke-width="4" stroke-miterlimit="10" stroke-linecap="round" stroke-linejoin="round"/>
<path d="M592.577 259.565H567.747" stroke="#64BDFF" stroke-width="4" stroke-miterlimit="10" stroke-linecap="round" stroke-linejoin="round"/>
<path d="M603.415 259.565H602.332" stroke="white" stroke-width="4" stroke-miterlimit="10" stroke-linecap="round" stroke-linejoin="round"/>
<path d="M559.765 251.091H542.03" stroke="#FF5F5F" stroke-width="4" stroke-miterlimit="10" stroke-linecap="round" stroke-linejoin="round"/>
<path d="M592.577 251.091H567.747" stroke="#FFBE78" stroke-width="4" stroke-miterlimit="10" stroke-linecap="round" stroke-linejoin="round"/>
<path d="M603.415 251.091H602.332" stroke="white" stroke-width="4" stroke-miterlimit="10" stroke-linecap="round" stroke-linejoin="round"/>
<path d="M556.317 242.617H551.489" stroke="#64BDFF" stroke-width="4" stroke-miterlimit="10" stroke-linecap="round" stroke-linejoin="round"/>
<path d="M575.038 242.617H564.101" stroke="#FF5F5F" stroke-width="4" stroke-miterlimit="10" stroke-linecap="round" stroke-linejoin="round"/>
<path d="M592.577 242.617H583.512" stroke="#C383F2" stroke-width="4" stroke-miterlimit="10" stroke-linecap="round" stroke-linejoin="round"/>
<path d="M603.415 242.617H602.332" stroke="white" stroke-width="4" stroke-miterlimit="10" stroke-linecap="round" stroke-linejoin="round"/>
<path d="M520.845 234.045H512.273" stroke="#64BDFF" stroke-width="4" stroke-miterlimit="10" stroke-linecap="round" stroke-linejoin="round"/>
<path d="M565.283 234.045H531.684" stroke="#FF5F5F" stroke-width="4" stroke-miterlimit="10" stroke-linecap="round" stroke-linejoin="round"/>
<path d="M592.577 234.045H572.575" stroke="#FFBE78" stroke-width="4" stroke-miterlimit="10" stroke-linecap="round" stroke-linejoin="round"/>
<path d="M603.415 234.045H602.332" stroke="white" stroke-width="4" stroke-miterlimit="10" stroke-linecap="round" stroke-linejoin="round"/>
<path d="M542.029 225.571H524.491" stroke="#FFBE78" stroke-width="4" stroke-miterlimit="10" stroke-linecap="round" stroke-linejoin="round"/>
<path d="M564.101 225.571H550.503" stroke="#6DBF7B" stroke-width="4" stroke-miterlimit="10" stroke-linecap="round" stroke-linejoin="round"/>
<path d="M578.881 225.571H571.195" stroke="#FFBE78" stroke-width="4" stroke-miterlimit="10" stroke-linecap="round" stroke-linejoin="round"/>
<path d="M592.577 225.571H586.271" stroke="#6DBF7B" stroke-width="4" stroke-miterlimit="10" stroke-linecap="round" stroke-linejoin="round"/>
<path d="M603.415 225.571H602.332" stroke="white" stroke-width="4" stroke-miterlimit="10" stroke-linecap="round" stroke-linejoin="round"/>
<path d="M597.898 210.101C596.537 210.101 595.434 208.999 595.434 207.638C595.434 206.278 596.537 205.175 597.898 205.175C599.258 205.175 600.361 206.278 600.361 207.638C600.361 208.999 599.258 210.101 597.898 210.101Z" fill="#E7534E"/>
<path d="M589.03 210.101C587.669 210.101 586.566 208.999 586.566 207.638C586.566 206.278 587.669 205.175 589.03 205.175C590.39 205.175 591.493 206.278 591.493 207.638C591.493 208.999 590.39 210.101 589.03 210.101Z" fill="#444E59"/>
<path d="M580.063 210.101C578.702 210.101 577.6 208.999 577.6 207.638C577.6 206.278 578.702 205.175 580.063 205.175C581.424 205.175 582.527 206.278 582.527 207.638C582.527 208.999 581.424 210.101 580.063 210.101Z" fill="#444E59"/>
<path d="M433.643 224.192H521.929C526.264 224.192 529.811 220.644 529.811 216.309V136.596C529.811 132.26 526.264 128.713 521.929 128.713H433.643C429.308 128.713 425.761 132.26 425.761 136.596V216.309C425.761 220.644 429.308 224.192 433.643 224.192Z" fill="white"/>
<path d="M433.643 224.192H521.929C526.264 224.192 529.811 220.644 529.811 216.309V136.596C529.811 132.26 526.264 128.713 521.929 128.713H433.643C429.308 128.713 425.761 132.26 425.761 136.596V216.309C425.761 220.644 429.308 224.192 433.643 224.192Z" fill="white"/>
<path d="M433.643 224.192H521.929C526.264 224.192 529.811 220.644 529.811 216.309V136.596C529.811 132.26 526.264 128.713 521.929 128.713H433.643C429.308 128.713 425.761 132.26 425.761 136.596V216.309C425.761 220.644 429.308 224.192 433.643 224.192Z" stroke="#444E59" stroke-width="4" stroke-miterlimit="10" stroke-linecap="round" stroke-linejoin="round"/>
<path d="M435.318 136.793H520.845V193.647H435.318V136.793Z" fill="#9483C4"/>
<path d="M435.318 136.793H520.845V193.647H435.318V136.793Z" stroke="#444E59" stroke-width="4" stroke-miterlimit="10" stroke-linecap="round" stroke-linejoin="round"/>
<path d="M520.845 202.712H466.849" stroke="#444E59" stroke-width="4" stroke-miterlimit="10" stroke-linecap="round" stroke-linejoin="round"/>
<path d="M520.845 211.776H488.92" stroke="#444E59" stroke-width="4" stroke-miterlimit="10" stroke-linecap="round" stroke-linejoin="round"/>
<path d="M512.273 183.498L493.847 165.269L476.702 182.414" stroke="#444E59" stroke-width="4" stroke-miterlimit="10" stroke-linecap="round" stroke-linejoin="round"/>
<path d="M444.58 183.498L466.849 154.43L484.683 174.334" stroke="#444E59" stroke-width="4" stroke-miterlimit="10" stroke-linecap="round" stroke-linejoin="round"/>
<path d="M444.778 211.678C442.111 211.678 439.949 209.516 439.949 206.85C439.949 204.184 442.111 202.022 444.778 202.022C447.444 202.022 449.606 204.184 449.606 206.85C449.606 209.516 447.444 211.678 444.778 211.678Z" stroke="#444E59" stroke-width="4" stroke-miterlimit="10" stroke-linecap="round" stroke-linejoin="round"/>
<path d="M488.428 160.539C485.054 160.539 482.319 157.804 482.319 154.43C482.319 151.057 485.054 148.321 488.428 148.321C491.801 148.321 494.537 151.057 494.537 154.43C494.537 157.804 491.801 160.539 488.428 160.539Z" fill="#F09F54"/>
<path d="M488.428 160.539C485.054 160.539 482.319 157.804 482.319 154.43C482.319 151.057 485.054 148.321 488.428 148.321C491.801 148.321 494.537 151.057 494.537 154.43C494.537 157.804 491.801 160.539 488.428 160.539Z" stroke="#444E59" stroke-width="4" stroke-miterlimit="10" stroke-linecap="round" stroke-linejoin="round"/>
<path d="M531.486 100.631H505.08" stroke="#444E59" stroke-width="4" stroke-miterlimit="10" stroke-linecap="round" stroke-linejoin="round"/>
<path d="M545.577 100.631H538.581" stroke="#444E59" stroke-width="4" stroke-miterlimit="10" stroke-linecap="round" stroke-linejoin="round"/>
<path d="M518.283 88.4134H505.08" stroke="#444E59" stroke-width="4" stroke-miterlimit="10" stroke-linecap="round" stroke-linejoin="round"/>
<path d="M528.925 88.4134H524.983" stroke="#444E59" stroke-width="4" stroke-miterlimit="10" stroke-linecap="round" stroke-linejoin="round"/>
<path d="M560.061 177.881H539.468" stroke="#444E59" stroke-width="4" stroke-miterlimit="10" stroke-linecap="round" stroke-linejoin="round"/>
<path d="M570.998 177.881H565.579" stroke="#444E59" stroke-width="4" stroke-miterlimit="10" stroke-linecap="round" stroke-linejoin="round"/>
<path d="M547.843 165.663H539.468" stroke="#444E59" stroke-width="4" stroke-miterlimit="10" stroke-linecap="round" stroke-linejoin="round"/>
<path d="M558.09 165.663H554.937" stroke="#444E59" stroke-width="4" stroke-miterlimit="10" stroke-linecap="round" stroke-linejoin="round"/>
<path d="M231.651 34.91H212.141" stroke="#444E59" stroke-width="4" stroke-miterlimit="10" stroke-linecap="round" stroke-linejoin="round"/>
<path d="M243.672 34.91H238.154" stroke="#444E59" stroke-width="4" stroke-miterlimit="10" stroke-linecap="round" stroke-linejoin="round"/>
<path d="M220.517 22.6919H212.141" stroke="#444E59" stroke-width="4" stroke-miterlimit="10" stroke-linecap="round" stroke-linejoin="round"/>
<path d="M230.666 22.6919H227.611" stroke="#444E59" stroke-width="4" stroke-miterlimit="10" stroke-linecap="round" stroke-linejoin="round"/>
<path d="M216.477 103.784H293.53C298.259 103.784 302.003 99.9417 302.003 95.3106V57.9667C302.003 53.2371 298.161 49.4928 293.53 49.4928H216.477C211.747 49.4928 208.003 53.3356 208.003 57.9667V95.2121C208.003 99.9417 211.747 103.784 216.477 103.784Z" fill="#2FA9ED"/>
<path d="M216.477 103.784H293.53C298.259 103.784 302.003 99.9417 302.003 95.3106V57.9667C302.003 53.2371 298.161 49.4928 293.53 49.4928H216.477C211.747 49.4928 208.003 53.3356 208.003 57.9667V95.2121C208.003 99.9417 211.747 103.784 216.477 103.784Z" stroke="#444E59" stroke-width="3" stroke-miterlimit="10" stroke-linecap="round" stroke-linejoin="round"/>
<path opacity="0.56" d="M255.003 64.0757H221.699" stroke="white" stroke-width="3" stroke-miterlimit="10" stroke-linecap="round" stroke-linejoin="round"/>
<path opacity="0.56" d="M255.003 74.8158H232.932" stroke="white" stroke-width="3" stroke-miterlimit="10" stroke-linecap="round" stroke-linejoin="round"/>
<g opacity="0.56">
<path opacity="0.56" d="M238.253 90.8766H251.653C253.427 90.8766 254.905 89.3987 254.905 87.6251C254.905 85.8515 253.427 84.3735 251.653 84.3735H238.253C236.479 84.3735 235.001 85.8515 235.001 87.6251C235.001 89.3987 236.38 90.8766 238.253 90.8766Z" fill="white"/>
<path opacity="0.56" d="M238.253 90.8766H251.653C253.427 90.8766 254.905 89.3987 254.905 87.6251C254.905 85.8515 253.427 84.3735 251.653 84.3735H238.253C236.479 84.3735 235.001 85.8515 235.001 87.6251C235.001 89.3987 236.38 90.8766 238.253 90.8766Z" stroke="white" stroke-width="3" stroke-miterlimit="10" stroke-linecap="round" stroke-linejoin="round"/>
</g>
<path d="M268.896 91.3693H286.534C289.096 91.3693 291.066 89.3001 291.066 86.8368V66.2434C291.066 63.6816 288.997 61.7109 286.534 61.7109H268.896C266.334 61.7109 264.364 63.7801 264.364 66.2434V86.8368C264.364 89.3001 266.334 91.3693 268.896 91.3693Z" stroke="white" stroke-width="3" stroke-miterlimit="10" stroke-linecap="round" stroke-linejoin="round"/>
<path d="M277.666 77.8703C275.054 77.8703 272.936 75.7528 272.936 73.1407C272.936 70.5286 275.054 68.4112 277.666 68.4112C280.278 68.4112 282.395 70.5286 282.395 73.1407C282.395 75.7528 280.278 77.8703 277.666 77.8703Z" stroke="white" stroke-width="3" stroke-miterlimit="10" stroke-linecap="round" stroke-linejoin="round"/>
<path d="M286.632 90.8766C286.632 85.95 282.592 81.9102 277.666 81.9102C272.739 81.9102 268.699 85.95 268.699 90.8766" stroke="white" stroke-width="3" stroke-miterlimit="10" stroke-linecap="round" stroke-linejoin="round"/>
</svg>
