<svg width="1512" height="815" viewBox="0 0 1512 815" fill="none" xmlns="http://www.w3.org/2000/svg">
<rect width="1512" height="514.046" fill="#00A7C2"/>
<path fill-rule="evenodd" clip-rule="evenodd" d="M0 585.164L27.72 605.444C55.44 625.724 112.14 666.283 167.58 713.602C224.28 760.921 279.72 815 336.42 815C391.86 815 448.56 760.921 504 727.122C559.44 693.322 616.14 679.803 671.58 673.043C728.28 666.283 783.72 666.283 840.42 686.562C895.86 706.842 952.56 747.401 1008 727.122C1063.44 706.842 1120.14 625.724 1175.58 618.964C1232.28 612.204 1287.72 679.803 1344.42 720.362C1399.86 760.921 1456.56 774.441 1484.28 781.201L1512 787.961V504.046H1484.28C1456.56 504.046 1399.86 504.046 1344.42 504.046C1287.72 504.046 1232.28 504.046 1175.58 504.046C1120.14 504.046 1063.44 504.046 1008 504.046C952.56 504.046 895.86 504.046 840.42 504.046C783.72 504.046 728.28 504.046 671.58 504.046C616.14 504.046 559.44 504.046 504 504.046C448.56 504.046 391.86 504.046 336.42 504.046C279.72 504.046 224.28 504.046 167.58 504.046C112.14 504.046 55.44 504.046 27.72 504.046H0V585.164Z" fill="#00A7C2"/>
</svg>
