<?xml version="1.0" encoding="UTF-8"?>
<svg width="455" height="46" fill="none" version="1.1" viewBox="0 0 455 46" xmlns="http://www.w3.org/2000/svg">
 <path d="m37.998 0c-10.133 0-16.467 5.0665-19 15.199 3.8-5.0672 8.2333-6.9668 13.3-5.6997 2.8901 0.72238 4.9565 2.8197 7.2435 5.1412 3.7253 3.7807 8.0371 8.1578 17.455 8.1578 10.133 0 16.466-5.0664 18.999-15.199-3.7993 5.0672-8.2326 6.9669-13.299 5.6997-2.8908-0.7223-4.9565-2.8196-7.2436-5.1412-3.726-3.7806-8.0371-8.1578-17.455-8.1578zm-19 22.799c-10.132 0-16.466 5.0665-18.999 15.2 3.8-5.0672 8.2326-6.9669 13.299-5.6997 2.8908 0.7223 4.9573 2.8196 7.2436 5.1405 3.726 3.782 8.0378 8.1578 17.456 8.1578 10.132 0 16.465-5.0658 18.999-15.199-3.8001 5.0672-8.2333 6.9668-13.299 5.6997-2.8908-0.7224-4.9572-2.8197-7.2442-5.1412-3.7253-3.7807-8.0371-8.1579-17.455-8.1579z" fill="url(#paint0_linear_3_41)"/>
 <path d="m113.73 29.08 8.28-21.12h1.16l7.24 21.28c0.56 1.68 0.933 2.8933 1.12 3.64 0.213-0.88 0.587-2.08 1.12-3.6l7.36-21.88h2l-9.96 28.84h-1.12l-7.4-21.2c-0.107-0.3467-0.227-0.6933-0.36-1.04-0.107-0.3467-0.2-0.6533-0.28-0.92s-0.16-0.4933-0.24-0.68l-0.16-0.48c-0.027-0.1333-0.04-0.2133-0.04-0.24-0.32 0.96-0.733 2.0667-1.24 3.32l-8.36 21.24h-1.12l-10.04-28.84h2.12l7.32 21.52c0.347 0.96 0.627 1.8267 0.84 2.6 0.24 0.7733 0.373 1.2 0.4 1.28 0.133-0.6133 0.587-1.8533 1.36-3.72zm49.055 7.32c-3.707 0-6.814-1.2933-9.32-3.88-2.507-2.5867-3.76-5.7467-3.76-9.48 0-3.76 1.253-6.9333 3.76-9.52 2.506-2.5867 5.613-3.88 9.32-3.88 3.706 0 6.813 1.2933 9.32 3.88 2.506 2.5867 3.76 5.76 3.76 9.52 0 3.7333-1.254 6.8933-3.76 9.48-2.507 2.5867-5.614 3.88-9.32 3.88zm0-25.12c-3.2 0-5.867 1.1333-8 3.4-2.107 2.2667-3.16 5.0533-3.16 8.36 0 3.28 1.053 6.0533 3.16 8.32 2.133 2.24 4.8 3.36 8 3.36 3.226 0 5.893-1.12 8-3.36 2.106-2.2667 3.16-5.04 3.16-8.32 0-3.3067-1.054-6.0933-3.16-8.36-2.107-2.2667-4.774-3.4-8-3.4zm25.498 24.72v-25.84c2.293-0.18667 4.24-0.28 5.84-0.28 2.453 0 4.48 0.64 6.08 1.92 1.6 1.2533 2.4 3.0533 2.4 5.4 0 1.5733-0.453 3.0267-1.36 4.36s-1.933 2.4133-3.08 3.24c3.173 4.2133 5.133 6.7333 5.88 7.56 1.52 1.5733 3.173 2.4667 4.96 2.68l-0.04 1.24c-1.493-0.0267-2.707-0.24-3.64-0.64-0.933-0.4267-1.867-1.1333-2.8-2.12-0.907-0.9867-2.92-3.64-6.04-7.96-2.16 0-4.28-0.0667-6.36-0.2v10.64h-1.84zm7.2-11.96c1.04 0 2.16-0.6933 3.36-2.08s1.8-3 1.8-4.84-0.627-3.24-1.88-4.2-2.88-1.44-4.88-1.44c-1.067 0-2.32 0.0533-3.76 0.16v12.2c1.92 0.1333 3.707 0.2 5.36 0.2zm37.296-14-11.08 12.52c4.373 5.3067 7.36 8.6667 8.96 10.08 1.627 1.4133 3.24 2.2133 4.84 2.4l-0.04 1.24c-1.493-0.0267-2.707-0.24-3.64-0.64-0.933-0.4267-1.76-0.9867-2.48-1.68s-2.267-2.3867-4.64-5.08c-2.347-2.72-4.107-4.8-5.28-6.24l11.16-12.6h2.2zm-13.92 0v25.96h-1.84v-25.96h1.84zm25.216 25.96v-25.96h1.84v25.96h-1.84zm15.845 0v-26.12h0.88l17.04 19.6c0.614 0.6933 1.174 1.3867 1.68 2.08 0.534 0.6667 0.814 1.0133 0.84 1.04-0.053-0.64-0.08-1.8933-0.08-3.76v-18.8h1.84v26.12h-0.88l-17.36-19.92-2.2-2.68c0.054 0.5333 0.08 1.7867 0.08 3.76v18.68h-1.84zm47.037-24.72c-2.96 0-5.453 1.1333-7.48 3.4-2 2.24-3 5-3 8.28s1.134 6.0667 3.4 8.36c2.267 2.2667 4.934 3.4 8 3.4 3.094 0 5.494-0.36 7.2-1.08v-10.68h1.84v11.52c-2.08 1.28-5.026 1.92-8.84 1.92-3.813 0-7.026-1.2933-9.64-3.88-2.613-2.5867-3.92-5.76-3.92-9.52 0-3.7867 1.174-6.96 3.52-9.52 2.374-2.56 5.427-3.84 9.16-3.84 3.014 0 5.96 0.4667 8.84 1.4l-0.48 1.52c-2.773-0.8533-5.64-1.28-8.6-1.28zm47.666-2.2h-9.68v-1.68h21.28v1.68h-9.68v26.92h-1.92v-26.92zm20.71 26.92v-25.96h1.84v25.96h-1.84zm20.485-24.32h-8.8v-1.64h19.4v1.64h-8.8v24.32h-1.8v-24.32zm20.424 24.32v-25.96h1.84v24.28h11.92v1.68h-13.76zm23.619 0v-25.96h12.12v1.6h-10.28v9.44h9.28v1.56h-9.28v11.68h10.68v1.68h-12.52z" fill="#fff"/>
 <path d="m113.73 29.08 0.462 0.1914 4e-3 -0.0089-0.466-0.1825zm8.28-21.12v-0.5h-0.341l-0.124 0.3175 0.465 0.1825zm1.16 0 0.473-0.16105-0.115-0.33895h-0.358v0.5zm7.24 21.28 0.474-0.1581-1e-3 -0.0029-0.473 0.161zm1.12 3.64-0.485 0.1213 0.971-0.0035-0.486-0.1178zm1.12-3.6 0.472 0.1656 2e-3 -0.0062-0.474-0.1594zm7.36-21.88v-0.5h-0.359l-0.115 0.34059 0.474 0.15941zm2 0 0.473 0.16322 0.229-0.66322h-0.702v0.5zm-9.96 28.84v0.5h0.356l0.117-0.3368-0.473-0.1632zm-1.12 0-0.472 0.1648 0.117 0.3352h0.355v-0.5zm-7.4-21.2-0.478 0.147 3e-3 9e-3 3e-3 0.0088 0.472-0.1648zm-0.36-1.04-0.478 0.147 5e-3 0.0165 6e-3 0.016 0.467-0.1795zm-0.28-0.92-0.479 0.1437 0.479-0.1437zm-0.24-0.68-0.474 0.1581 6e-3 0.0197 9e-3 0.0192 0.459-0.197zm-0.16-0.48-0.49 0.0981 6e-3 0.0305 0.01 0.0295 0.474-0.1581zm-0.04-0.24h0.5l-0.974-0.1581 0.474 0.1581zm-1.24 3.32-0.463-0.1874-2e-3 0.0043 0.465 0.1831zm-8.36 21.24v0.5h0.341l0.124-0.3169-0.465-0.1831zm-1.12 0-0.472 0.1644 0.117 0.3356h0.355v-0.5zm-10.04-28.84v-0.5h-0.703l0.231 0.66439 0.472-0.16439zm2.12 0 0.473-0.16102-0.115-0.33898h-0.358v0.5zm7.32 21.52-0.473 0.161 3e-3 0.0088 0.47-0.1698zm0.84 2.6-0.482 0.133 2e-3 0.0076 3e-3 0.0076 0.477-0.1482zm0.4 1.28-0.474 0.1581 0.576 1.728 0.387-1.7799-0.489-0.1062zm1.826-3.5375 8.28-21.12-0.931-0.365-8.28 21.12 0.931 0.365zm7.814-20.802h1.16v-1h-1.16v1zm0.687-0.33895 7.24 21.28 0.946-0.322-7.24-21.28-0.946 0.3221zm7.239 21.277c0.56 1.6793 0.927 2.8768 1.109 3.6032l0.97-0.2426c-0.192-0.7669-0.57-1.9961-1.131-3.6768l-0.948 0.3162zm2.08 3.5997c0.208-0.8561 0.575-2.0379 1.106-3.5523l-0.944-0.331c-0.535 1.5256-0.915 2.7438-1.134 3.6477l0.972 0.2356zm1.108-3.5584 7.36-21.88-0.948-0.31882-7.36 21.88 0.948 0.3188zm6.886-21.539h2v-1h-2v1zm1.528-0.66322-9.96 28.84 0.945 0.3264 9.96-28.84-0.945-0.32644zm-9.488 28.503h-1.12v1h1.12v-1zm-0.648 0.3352-7.4-21.2-0.944 0.3296 7.4 21.2 0.944-0.3296zm-7.394-21.182c-0.11-0.3579-0.234-0.7154-0.371-1.0725l-0.934 0.359c0.13 0.3362 0.246 0.6721 0.349 1.0075l0.956-0.294zm-0.36-1.04c-0.106-0.3459-0.199-0.6514-0.279-0.9167l-0.958 0.2874c0.081 0.268 0.174 0.5759 0.281 0.9233l0.956-0.294zm-0.279-0.9167c-0.084-0.2786-0.17-0.5242-0.259-0.7333l-0.919 0.394c0.07 0.1642 0.144 0.372 0.22 0.6267l0.958-0.2874zm-0.245-0.6944-0.16-0.48-0.948 0.3162 0.16 0.48 0.948-0.3162zm-0.144-0.42c-0.012-0.0644-0.021-0.1117-0.027-0.1441-2e-3 -0.0163-4e-3 -0.0257-4e-3 -0.0298v3e-3c0 0.0026 1e-3 0.0134 1e-3 0.029h-1c0 0.0618 0.011 0.1295 0.017 0.1622 8e-3 0.0476 0.019 0.1069 0.033 0.1759l0.98-0.1962zm-1.004-0.3c-0.316 0.9475-0.725 2.044-1.229 3.2907l0.927 0.3748c0.509-1.26 0.926-2.3768 1.25-3.3493l-0.948-0.3162zm-1.231 3.295-8.36 21.24 0.93 0.3662 8.36-21.24-0.93-0.3662zm-7.895 20.923h-1.12v1h1.12v-1zm-0.648 0.3356-10.04-28.84-0.944 0.32878 10.04 28.84 0.944-0.3288zm-10.512-28.176h2.12v-1h-2.12v1zm1.647-0.33899 7.32 21.52 0.946-0.322-7.32-21.52-0.946 0.32203zm7.323 21.529c0.343 0.951 0.619 1.8051 0.828 2.5632l0.964-0.266c-0.217-0.7885-0.502-1.6678-0.852-2.6368l-0.94 0.3396zm0.833 2.5784c0.238 0.7691 0.374 1.2034 0.403 1.2899l0.948-0.3162c-0.024-0.0735-0.155-0.4925-0.396-1.2701l-0.955 0.2964zm1.366 1.238c0.122-0.5615 0.556-1.7589 1.333-3.6348l-0.924-0.3828c-0.769 1.8575-1.242 3.14-1.386 3.8052l0.977 0.2124zm40.606-0.3862 0.359-0.348-0.359 0.348zm0-19 0.359 0.348-0.359-0.348zm18.64 0 0.359-0.348-0.359 0.348zm0 19 0.359 0.348-0.359-0.348zm-17.32-17.84-0.364-0.3427-2e-3 0.0023 0.366 0.3404zm0 16.68-0.366 0.3404 4e-3 0.0044 0.362-0.3448zm16 0 0.364 0.3426 2e-3 -0.0022-0.366-0.3404zm0-16.68 0.366-0.3404-0.366 0.3404zm-8 21.22c-3.576 0-6.552-1.2416-8.961-3.728l-0.718 0.696c2.604 2.6869 5.841 4.032 9.679 4.032v-1zm-8.961-3.728c-2.413-2.4896-3.619-5.5233-3.619-9.132h-1c0 3.858 1.3 7.1443 3.901 9.828l0.718-0.696zm-3.619-9.132c0-3.6364 1.207-6.6831 3.619-9.172l-0.718-0.696c-2.602 2.6844-3.901 5.9844-3.901 9.868h1zm3.619-9.172c2.409-2.4864 5.385-3.728 8.961-3.728v-1c-3.838 0-7.075 1.3451-9.679 4.032l0.718 0.696zm8.961-3.728c3.576 0 6.551 1.2416 8.961 3.728l0.718-0.696c-2.604-2.6869-5.842-4.032-9.679-4.032v1zm8.961 3.728c2.412 2.4889 3.619 5.5356 3.619 9.172h1c0-3.8836-1.3-7.1836-3.901-9.868l-0.718 0.696zm3.619 9.172c0 3.6087-1.207 6.6424-3.619 9.132l0.718 0.696c2.601-2.6837 3.901-5.97 3.901-9.828h-1zm-3.619 9.132c-2.41 2.4864-5.385 3.728-8.961 3.728v1c3.837 0 7.075-1.3451 9.679-4.032l-0.718-0.696zm-8.961-21.392c-3.334 0-6.134 1.1871-8.364 3.5573l0.728 0.6854c2.036-2.1632 4.569-3.2427 7.636-3.2427v-1zm-8.366 3.5596c-2.199 2.3659-3.294 5.2769-3.294 8.7004h1c0-3.1899 1.012-5.8522 3.026-8.0196l-0.732-0.6808zm-3.294 8.7004c0 3.398 1.095 6.2953 3.294 8.6604l0.732-0.6808c-2.015-2.1682-3.026-4.8176-3.026-7.9796h-1zm3.298 8.6648c2.231 2.3429 5.03 3.5152 8.362 3.5152v-1c-3.069 0-5.603-1.0677-7.638-3.2048l-0.724 0.6896zm8.362 3.5152c3.357 0 6.158-1.1715 8.364-3.5175l-0.728-0.685c-2.007 2.134-4.54 3.2025-7.636 3.2025v1zm8.366-3.5196c2.198-2.3651 3.294-5.2624 3.294-8.6604h-1c0 3.162-1.011 5.8114-3.026 7.9796l0.732 0.6808zm3.294-8.6604c0-3.4235-1.095-6.3345-3.294-8.7004l-0.732 0.6808c2.014 2.1674 3.026 4.8297 3.026 8.0196h1zm-3.294-8.7004c-2.206-2.3732-5.007-3.5596-8.366-3.5596v1c3.094 0 5.626 1.0803 7.634 3.2404l0.732-0.6808zm17.132 21.66h-0.5v0.5h0.5v-0.5zm0-25.84-0.041-0.49835-0.459 0.03739v0.46096h0.5zm11.92 1.64-0.312 0.3905 4e-3 0.0031 0.308-0.3936zm1.04 9.76 0.413 0.2812-0.413-0.2812zm-3.08 3.24-0.292-0.4056-0.415 0.2986 0.308 0.4078 0.399-0.3008zm5.88 7.56-0.371 0.3351 6e-3 0.0063 5e-3 6e-3 0.36-0.3474zm4.96 2.68 0.5 0.0161 0.014-0.4582-0.455-0.0544-0.059 0.4965zm-0.04 1.24-9e-3 0.4999 0.493 0.0088 0.016-0.4926-0.5-0.0161zm-3.64-0.64-0.208 0.4549 0.011 0.0047 0.197-0.4596zm-2.8-2.12-0.368 0.3383 5e-3 0.0053 0.363-0.3436zm-6.04-7.96 0.405-0.2927-0.149-0.2073h-0.256v0.5zm-6.36-0.2 0.032-0.499-0.532-0.0341v0.5331h0.5zm0 10.64v0.5h0.5v-0.5h-0.5zm8.72-14.04-0.378-0.3272 0.378 0.3272zm-0.08-9.04 0.304-0.3969-0.304 0.3969zm-8.64-1.28-0.037-0.4986-0.463 0.0343v0.4643h0.5zm0 12.2h-0.5v0.4665l0.465 0.0323 0.035-0.4988zm-1.34 12.16v-25.84h-1v25.84h1zm-0.459-25.342c2.285-0.186 4.217-0.2784 5.799-0.2784v-1c-1.618 0-3.579 0.09431-5.881 0.28165l0.082 0.99675zm5.799-0.2784c2.363 0 4.273 0.6146 5.768 1.8104l0.624-0.7808c-1.705-1.3642-3.848-2.0296-6.392-2.0296v1zm5.772 1.8136c1.459 1.1432 2.208 2.7866 2.208 5.0064h1c0-2.4735-0.851-4.4301-2.592-5.7936l-0.616 0.7872zm2.208 5.0064c0 1.4704-0.422 2.8262-1.274 4.0788l0.827 0.5624c0.962-1.4141 1.447-2.965 1.447-4.6412h-1zm-1.274 4.0788c-0.878 1.2919-1.865 2.3275-2.958 3.1156l0.584 0.8112c1.2-0.8652 2.267-1.9896 3.201-3.3644l-0.827-0.5624zm-3.065 3.822c3.166 4.2047 5.143 6.747 5.908 7.5943l0.742-0.6702c-0.728-0.806-2.672-3.3037-5.852-7.5257l-0.798 0.6016zm5.919 7.6066c1.582 1.6376 3.337 2.5993 5.261 2.8291l0.118-0.993c-1.649-0.1969-3.202-1.0219-4.659-2.5309l-0.72 0.6948zm4.82 2.3165-0.04 1.24 1 0.0322 0.04-1.24-1-0.0322zm0.469 0.7562c-1.457-0.026-2.599-0.2342-3.452-0.5997l-0.394 0.9192c1.014 0.4345 2.298 0.653 3.828 0.6803l0.018-0.9998zm-3.441-0.5948c-0.86-0.3929-1.742-1.0546-2.645-2.0089l-0.726 0.6872c0.964 1.0191 1.948 1.7706 2.955 2.2311l0.416-0.9094zm-2.64-2.0036c-0.882-0.9601-2.876-3.5856-6.003-7.9144l-0.81 0.5854c3.113 4.3112 5.146 6.9924 6.077 8.0056l0.736-0.6766zm-6.408-8.1217c-2.15 0-4.259-0.0663-6.328-0.199l-0.064 0.998c2.091 0.134 4.222 0.201 6.392 0.201v-1zm-6.86 0.3v10.64h1v-10.64h-1zm0.5 10.14h-1.84v1h1.84v-1zm5.36-10.96c1.264 0 2.511-0.8354 3.738-2.2528l-0.756-0.6544c-1.174 1.3559-2.166 1.9072-2.982 1.9072v1zm3.738-2.2528c1.279-1.4779 1.922-3.2075 1.922-5.1672h-1c0 1.7203-0.557 3.2174-1.678 4.5128l0.756 0.6544zm1.922-5.1672c0-1.9665-0.678-3.5259-2.076-4.5969l-0.608 0.7938c1.108 0.849 1.684 2.0896 1.684 3.8031h1zm-2.076-4.5969c-1.362-1.0429-3.104-1.5431-5.184-1.5431v1c1.92 0 3.431 0.4598 4.576 1.3369l0.608-0.7938zm-5.184-1.5431c-1.082 0-2.349 0.0541-3.797 0.1614l0.074 0.9972c1.432-0.106 2.672-0.1586 3.723-0.1586v-1zm-4.26 0.66v12.2h1v-12.2h-1zm0.465 12.699c1.93 0.134 3.728 0.2012 5.395 0.2012v-1c-1.64 0-3.415-0.0661-5.325-0.1988l-0.07 0.9976zm42.691-14.299 0.374 0.3314 0.736-0.8314h-1.11v0.5zm-11.08 12.52-0.375-0.3314-0.283 0.3198 0.272 0.3296 0.386-0.318zm8.96 10.08-0.331 0.3747 3e-3 0.0027 0.328-0.3774zm4.84 2.4 0.5 0.0161 0.014-0.4595-0.456-0.0532-0.058 0.4966zm-0.04 1.24-9e-3 0.4999 0.493 0.0088 0.016-0.4926-0.5-0.0161zm-3.64-0.64-0.208 0.4549 0.011 0.0047 0.197-0.4596zm-2.48-1.68 0.347-0.3602-0.347 0.3602zm-4.64-5.08-0.379 0.3266 4e-3 4e-3 0.375-0.3306zm-5.28-6.24-0.374-0.3315-0.282 0.318 0.268 0.3293 0.388-0.3158zm11.16-12.6v-0.5h-0.225l-0.149 0.16848 0.374 0.33152zm-11.72 0h0.5v-0.5h-0.5v0.5zm0 25.96v0.5h0.5v-0.5h-0.5zm-1.84 0h-0.5v0.5h0.5v-0.5zm0-25.96v-0.5h-0.5v0.5h0.5zm15.385-0.33137-11.08 12.52 0.749 0.6628 11.08-12.52-0.749-0.66277zm-11.091 13.169c4.368 5.2999 7.38 8.6924 9.015 10.137l0.662-0.7494c-1.565-1.3823-4.526-4.7098-8.905-10.023l-0.772 0.636zm9.018 10.139c1.677 1.4575 3.381 2.3176 5.11 2.5192l0.116-0.9932c-1.472-0.1717-2.994-0.9116-4.57-2.2808l-0.656 0.7548zm4.668 2.0065-0.04 1.24 1 0.0322 0.04-1.24-1-0.0322zm0.469 0.7562c-1.457-0.026-2.599-0.2342-3.452-0.5997l-0.394 0.9192c1.014 0.4345 2.298 0.653 3.828 0.6803l0.018-0.9998zm-3.441-0.5948c-0.884-0.4039-1.663-0.9323-2.341-1.5855l-0.694 0.7204c0.762 0.7335 1.636 1.325 2.619 1.7745l0.416-0.9094zm-2.341-1.5855c-0.702-0.6761-2.235-2.3524-4.612-5.0504l-0.75 0.6612c2.369 2.6887 3.93 4.3991 4.668 5.1096l0.694-0.7204zm-4.609-5.0464c-2.345-2.7191-4.102-4.7948-5.271-6.2292l-0.775 0.6316c1.178 1.4456 2.942 3.5299 5.289 6.2508l0.757-0.6532zm-5.284-5.5819 11.16-12.6-0.748-0.66302-11.16 12.6 0.748 0.663zm10.786-12.432h2.2v-1h-2.2v1zm-12.22-0.5v25.96h1v-25.96h-1zm0.5 25.46h-1.84v1h1.84v-1zm-1.34 0.5v-25.96h-1v25.96h1zm-0.5-25.46h1.84v-1h-1.84v1zm27.056 25.46h-0.5v0.5h0.5v-0.5zm0-25.96v-0.5h-0.5v0.5h0.5zm1.84 0h0.5v-0.5h-0.5v0.5zm0 25.96v0.5h0.5v-0.5h-0.5zm-1.34 0v-25.96h-1v25.96h1zm-0.5-25.46h1.84v-1h-1.84v1zm1.34-0.5v25.96h1v-25.96h-1zm0.5 25.46h-1.84v1h1.84v-1zm14.005 0.5h-0.5v0.5h0.5v-0.5zm0-26.12v-0.5h-0.5v0.5h0.5zm0.88 0 0.378-0.32805-0.15-0.17195h-0.228v0.5zm17.04 19.6-0.377 0.3281 3e-3 0.0032 0.374-0.3313zm1.68 2.08-0.403 0.295 6e-3 0.0088 7e-3 0.0085 0.39-0.3123zm0.84 1.04-0.353 0.3536 0.965 0.9652-0.113-1.3603-0.499 0.0415zm-0.08-22.56v-0.5h-0.5v0.5h0.5zm1.84 0h0.5v-0.5h-0.5v0.5zm0 26.12v0.5h0.5v-0.5h-0.5zm-0.88 0-0.376 0.3285 0.149 0.1715h0.227v-0.5zm-17.36-19.92-0.386 0.3172 5e-3 0.0057 5e-3 0.0056 0.376-0.3285zm-2.2-2.68 0.387-0.3172-1.048-1.2772 0.164 1.6441 0.497-0.0497zm0.08 22.44v0.5h0.5v-0.5h-0.5zm-1.34 0v-26.12h-1v26.12h1zm-0.5-25.62h0.88v-1h-0.88v1zm0.503-0.172 17.04 19.6 0.755-0.6562-17.04-19.6-0.755 0.65605zm17.043 19.603c0.604 0.6826 1.154 1.3638 1.651 2.0437l0.807-0.59c-0.516-0.7068-1.086-1.4122-1.709-2.1163l-0.749 0.6626zm1.664 2.061c0.267 0.3335 0.471 0.5876 0.611 0.7619 0.071 0.087 0.126 0.1549 0.166 0.2032 0.028 0.0341 0.071 0.0873 0.1 0.1162l0.707-0.7072c0.016 0.0156 0.014 0.0154-0.035-0.0438-0.037-0.045-0.09-0.1104-0.16-0.1968-0.139-0.1724-0.342-0.425-0.608-0.7581l-0.781 0.6246zm1.729 0.6862c-0.052-0.616-0.079-1.8488-0.079-3.7185h-1c0 1.8637 0.027 3.1375 0.082 3.8015l0.997-0.083zm-0.079-3.7185v-18.8h-1v18.8h1zm-0.5-18.3h1.84v-1h-1.84v1zm1.34-0.5v26.12h1v-26.12h-1zm0.5 25.62h-0.88v1h0.88v-1zm-0.503 0.1715-17.36-19.92-0.753 0.657 17.36 19.92 0.753-0.657zm-17.35-19.909-2.2-2.68-0.773 0.6344 2.2 2.68 0.773-0.6344zm-3.084-2.3131c0.05 0.5033 0.077 1.7291 0.077 3.7103h1c0-1.9654-0.026-3.2464-0.082-3.8098l-0.995 0.0995zm0.077 3.7103v18.68h1v-18.68h-1zm0.5 18.18h-1.84v1h1.84v-1zm37.717-20.82-0.372-0.3333-1e-3 3e-4 0.373 0.333zm0.4 16.64-0.355 0.3515 2e-3 0.0021 0.353-0.3536zm15.2 2.32 0.195 0.4607 0.305-0.129v-0.3317h-0.5zm0-10.68v-0.5h-0.5v0.5h0.5zm1.84 0h0.5v-0.5h-0.5v0.5zm0 11.52 0.262 0.4258 0.238-0.1464v-0.2794h-0.5zm-18.48-1.96-0.351 0.3554 0.351-0.3554zm-0.4-19.04-0.366-0.3399-2e-3 2e-3 0.368 0.3379zm18-2.44 0.477 0.1506 0.15-0.4733-0.473-0.1529-0.154 0.4756zm-0.48 1.52-0.147 0.4779 0.475 0.146 0.149-0.4733-0.477-0.1506zm-8.6-1.78c-3.106 0-5.734 1.1973-7.852 3.5667l0.745 0.6666c1.935-2.1639 4.294-3.2333 7.107-3.2333v-1zm-7.853 3.567c-2.089 2.3404-3.127 5.2224-3.127 8.613h1c0-3.1694 0.963-5.8074 2.873-7.947l-0.746-0.666zm-3.127 8.613c0 3.4091 1.184 6.3228 3.545 8.7115l0.711-0.703c-2.172-2.1979-3.256-4.8576-3.256-8.0085h-1zm3.547 8.7136c2.355 2.3557 5.147 3.5464 8.353 3.5464v-1c-2.927 0-5.469-1.0759-7.646-3.2536l-0.707 0.7072zm8.353 3.5464c3.122 0 5.599-0.3616 7.395-1.1193l-0.389-0.9214c-1.617 0.6823-3.94 1.0407-7.006 1.0407v1zm7.7-1.58v-10.68h-1v10.68h1zm-0.5-10.18h1.84v-1h-1.84v1zm1.34-0.5v11.52h1v-11.52h-1zm0.238 11.094c-1.968 1.2115-4.809 1.8458-8.578 1.8458v1c3.859 0 6.911-0.6457 9.102-1.9942l-0.524-0.8516zm-8.578 1.8458c-3.687 0-6.772-1.2451-9.288-3.7354l-0.703 0.7108c2.71 2.683 6.052 4.0246 9.991 4.0246v-1zm-9.288-3.7354c-2.516-2.4904-3.772-5.5347-3.772-9.1646h-1c0 3.8901 1.358 7.1924 4.069 9.8754l0.703-0.7108zm-3.772-9.1646c0-3.6739 1.135-6.723 3.389-9.1821l-0.737-0.6758c-2.439 2.6609-3.652 5.9584-3.652 9.8579h1zm3.387-9.1801c2.272-2.4502 5.188-3.6799 8.793-3.6799v-1c-3.861 0-7.051 1.3303-9.526 4.0001l0.733 0.6798zm8.793-3.6799c2.961 0 5.856 0.4584 8.686 1.3756l0.308-0.9512c-2.929-0.94944-5.928-1.4244-8.994-1.4244v1zm8.364 0.7494-0.48 1.52 0.953 0.3012 0.48-1.52-0.953-0.3012zm0.143 1.1927c-2.822-0.8683-5.738-1.3021-8.747-1.3021v1c2.911 0 5.729 0.4195 8.453 1.2579l0.294-0.9558zm38.919-3.0021h0.5v-0.5h-0.5v0.5zm-9.68 0h-0.5v0.5h0.5v-0.5zm0-1.68v-0.5h-0.5v0.5h0.5zm21.28 0h0.5v-0.5h-0.5v0.5zm0 1.68v0.5h0.5v-0.5h-0.5zm-9.68 0v-0.5h-0.5v0.5h0.5zm0 26.92v0.5h0.5v-0.5h-0.5zm-1.92 0h-0.5v0.5h0.5v-0.5zm0-27.42h-9.68v1h9.68v-1zm-9.18 0.5v-1.68h-1v1.68h1zm-0.5-1.18h21.28v-1h-21.28v1zm20.78-0.5v1.68h1v-1.68h-1zm0.5 1.18h-9.68v1h9.68v-1zm-10.18 0.5v26.92h1v-26.92h-1zm0.5 26.42h-1.92v1h1.92v-1zm-1.42 0.5v-26.92h-1v26.92h1zm20.21 0h-0.5v0.5h0.5v-0.5zm0-25.96v-0.5h-0.5v0.5h0.5zm1.84 0h0.5v-0.5h-0.5v0.5zm0 25.96v0.5h0.5v-0.5h-0.5zm-1.34 0v-25.96h-1v25.96h1zm-0.5-25.46h1.84v-1h-1.84v1zm1.34-0.5v25.96h1v-25.96h-1zm0.5 25.46h-1.84v1h1.84v-1zm18.645-23.82h0.5v-0.5h-0.5v0.5zm-8.8 0h-0.5v0.5h0.5v-0.5zm0-1.64v-0.5h-0.5v0.5h0.5zm19.4 0h0.5v-0.5h-0.5v0.5zm0 1.64v0.5h0.5v-0.5h-0.5zm-8.8 0v-0.5h-0.5v0.5h0.5zm0 24.32v0.5h0.5v-0.5h-0.5zm-1.8 0h-0.5v0.5h0.5v-0.5zm0-24.82h-8.8v1h8.8v-1zm-8.3 0.5v-1.64h-1v1.64h1zm-0.5-1.14h19.4v-1h-19.4v1zm18.9-0.5v1.64h1v-1.64h-1zm0.5 1.14h-8.8v1h8.8v-1zm-9.3 0.5v24.32h1v-24.32h-1zm0.5 23.82h-1.8v1h1.8v-1zm-1.3 0.5v-24.32h-1v24.32h1zm19.924 0h-0.5v0.5h0.5v-0.5zm0-25.96v-0.5h-0.5v0.5h0.5zm1.84 0h0.5v-0.5h-0.5v0.5zm0 24.28h-0.5v0.5h0.5v-0.5zm11.92 0h0.5v-0.5h-0.5v0.5zm0 1.68v0.5h0.5v-0.5h-0.5zm-13.26 0v-25.96h-1v25.96h1zm-0.5-25.46h1.84v-1h-1.84v1zm1.34-0.5v24.28h1v-24.28h-1zm0.5 24.78h11.92v-1h-11.92v1zm11.42-0.5v1.68h1v-1.68h-1zm0.5 1.18h-13.76v1h13.76v-1zm9.859 0.5h-0.5v0.5h0.5v-0.5zm0-25.96v-0.5h-0.5v0.5h0.5zm12.12 0h0.5v-0.5h-0.5v0.5zm0 1.6v0.5h0.5v-0.5h-0.5zm-10.28 0v-0.5h-0.5v0.5h0.5zm0 9.44h-0.5v0.5h0.5v-0.5zm9.28 0h0.5v-0.5h-0.5v0.5zm0 1.56v0.5h0.5v-0.5h-0.5zm-9.28 0v-0.5h-0.5v0.5h0.5zm0 11.68h-0.5v0.5h0.5v-0.5zm10.68 0h0.5v-0.5h-0.5v0.5zm0 1.68v0.5h0.5v-0.5h-0.5zm-12.02 0v-25.96h-1v25.96h1zm-0.5-25.46h12.12v-1h-12.12v1zm11.62-0.5v1.6h1v-1.6h-1zm0.5 1.1h-10.28v1h10.28v-1zm-10.78 0.5v9.44h1v-9.44h-1zm0.5 9.94h9.28v-1h-9.28v1zm8.78-0.5v1.56h1v-1.56h-1zm0.5 1.06h-9.28v1h9.28v-1zm-9.78 0.5v11.68h1v-11.68h-1zm0.5 12.18h10.68v-1h-10.68v1zm10.18-0.5v1.68h1v-1.68h-1zm0.5 1.18h-12.52v1h12.52v-1z" fill="#fff"/>
 <defs>
  <linearGradient id="paint0_linear_3_41" x1="-2.1112" x2="63.523" y1="14.591" y2="52.435" gradientUnits="userSpaceOnUse">
   <stop stop-color="#2298BD" offset="0"/>
   <stop stop-color="#0ED7B5" offset="1"/>
  </linearGradient>
 </defs>
</svg>
