<svg width="423" height="46" viewBox="0 0 423 46" fill="none" xmlns="http://www.w3.org/2000/svg">
<path d="M37.9982 0C27.8652 0 21.5316 5.06647 18.9987 15.1994C22.7987 10.1322 27.232 8.23256 32.2985 9.49972C35.1886 10.2221 37.255 12.3194 39.542 14.6409C43.2673 18.4216 47.5791 22.7987 56.9969 22.7987C67.1298 22.7987 73.4627 17.7323 75.9956 7.59934C72.1963 12.6665 67.763 14.5662 62.6966 13.299C59.8058 12.5767 57.7401 10.4794 55.453 8.15781C51.727 4.37719 47.4159 0 37.9982 0ZM18.9987 22.7987C8.8665 22.7987 2.53288 27.8652 0 37.9982C3.80003 32.931 8.23256 31.0313 13.299 32.2985C16.1898 33.0208 18.2563 35.1181 20.5426 37.439C24.2686 41.221 28.5804 45.5968 37.9982 45.5968C48.1304 45.5968 54.4633 40.531 56.9969 30.3981C53.1968 35.4653 48.7636 37.3649 43.6978 36.0978C40.807 35.3754 38.7406 33.2781 36.4536 30.9566C32.7283 27.1759 28.4165 22.7987 18.9987 22.7987Z" fill="url(#paint0_linear_3_41)"/>
<path d="M117.714 29.08L125.994 7.96H127.154L134.394 29.24C134.954 30.92 135.328 32.1333 135.514 32.88C135.728 32 136.101 30.8 136.634 29.28L143.994 7.4H145.994L136.034 36.24H134.914L127.514 15.04C127.408 14.6933 127.288 14.3467 127.154 14C127.048 13.6533 126.954 13.3467 126.874 13.08C126.794 12.8133 126.714 12.5867 126.634 12.4L126.474 11.92C126.448 11.7867 126.434 11.7067 126.434 11.68C126.114 12.64 125.701 13.7467 125.194 15L116.834 36.24H115.714L105.674 7.4H107.794L115.114 28.92C115.461 29.88 115.741 30.7467 115.954 31.52C116.194 32.2933 116.328 32.72 116.354 32.8C116.488 32.1867 116.941 30.9467 117.714 29.08ZM155.836 36V10.04H167.956V11.64H157.676V21.08H166.956V22.64H157.676V34.32H168.356V36H155.836ZM180.119 36V10.04H192.239V11.64H181.959V21.08H191.239V22.64H181.959V34.32H192.639V36H180.119ZM236.056 9.92C234.109 9.09333 232.176 8.68 230.256 8.68C226.362 8.68 224.416 10.12 224.416 13C224.416 14.2533 224.856 15.4267 225.736 16.52C226.616 17.5867 227.682 18.5467 228.936 19.4C230.189 20.2267 231.442 21.08 232.696 21.96C233.949 22.84 235.016 23.8933 235.896 25.12C236.776 26.3467 237.216 27.68 237.216 29.12C237.216 31.5467 236.402 33.3867 234.776 34.64C233.149 35.8667 230.896 36.48 228.016 36.48C225.162 36.48 222.722 35.7467 220.696 34.28L221.656 32.84C223.576 34.0933 225.682 34.72 227.976 34.72C230.269 34.72 232.029 34.2667 233.256 33.36C234.482 32.4267 235.096 31.0933 235.096 29.36C235.096 28.16 234.656 27.0267 233.776 25.96C232.896 24.8667 231.829 23.8933 230.576 23.04C229.322 22.16 228.069 21.2667 226.816 20.36C225.562 19.4533 224.496 18.3733 223.616 17.12C222.736 15.8667 222.296 14.52 222.296 13.08C222.296 11.1867 222.989 9.69333 224.376 8.6C225.789 7.48 227.682 6.92 230.056 6.92C232.456 6.92 234.682 7.4 236.736 8.36L236.056 9.92ZM249.491 36V10.04H261.611V11.64H251.331V21.08H260.611V22.64H251.331V34.32H262.011V36H249.491ZM273.773 36V10.04H285.893V11.64H275.613V21.08H284.893V22.64H275.613V34.32H286.293V36H273.773ZM330.87 36.48C326.71 36.48 323.137 35.0667 320.15 32.24C317.164 29.3867 315.67 25.88 315.67 21.72C315.67 17.5333 316.977 14.0267 319.59 11.2C322.204 8.34667 325.55 6.92 329.63 6.92C332.83 6.92 336.07 7.45333 339.35 8.52L338.83 10.12C335.63 9.16 332.564 8.68 329.63 8.68C326.137 8.68 323.284 9.93333 321.07 12.44C318.857 14.9467 317.75 18.0133 317.75 21.64C317.75 25.2667 319.03 28.36 321.59 30.92C324.177 33.4533 327.27 34.72 330.87 34.72C334.017 34.72 336.737 34.24 339.03 33.28L339.63 34.64C338.617 35.2267 337.284 35.68 335.63 36C334.004 36.32 332.417 36.48 330.87 36.48ZM361.075 30.2L370.675 7.4H372.715L360.395 36.24H359.275L346.915 7.4H349.075L358.675 30.12C359.342 31.7467 359.755 32.8667 359.915 33.48C360.128 32.6267 360.515 31.5333 361.075 30.2ZM383.025 36V7.4H396.305V9.08H384.945V19.6H395.225V21.24H384.945V34.32H396.745V36H383.025ZM413.592 11.16C412.152 11.16 410.978 11.5067 410.072 12.2C409.165 12.8933 408.712 13.8667 408.712 15.12C408.712 16.56 409.312 17.8533 410.512 19C411.365 19.8267 412.458 20.7067 413.792 21.64C415.152 22.5467 416.085 23.2 416.592 23.6C417.098 24 417.712 24.5467 418.432 25.24C419.738 26.5467 420.392 28.0533 420.392 29.76C420.392 31.9733 419.645 33.6533 418.152 34.8C416.685 35.92 414.618 36.48 411.952 36.48C409.312 36.48 407.098 35.7867 405.312 34.4L406.272 33C408.085 34.2267 410.005 34.84 412.032 34.84C414.058 34.84 415.632 34.4133 416.752 33.56C417.898 32.7067 418.472 31.5067 418.472 29.96C418.472 28.6267 417.898 27.4 416.752 26.28C415.952 25.48 414.872 24.6133 413.512 23.68C412.178 22.7467 411.245 22.08 410.712 21.68C410.178 21.2533 409.552 20.6933 408.832 20C407.472 18.64 406.792 17.0667 406.792 15.28C406.792 13.4933 407.418 12.0933 408.672 11.08C409.952 10.0667 411.712 9.56 413.952 9.56C416.192 9.56 418.205 10 419.992 10.88L419.312 12.36C417.658 11.56 415.752 11.16 413.592 11.16Z" fill="white"/>
<path d="M117.714 29.08L118.176 29.2714L118.18 29.2625L117.714 29.08ZM125.994 7.96V7.46H125.653L125.529 7.7775L125.994 7.96ZM127.154 7.96L127.628 7.79895L127.512 7.46H127.154V7.96ZM134.394 29.24L134.869 29.0819L134.868 29.079L134.394 29.24ZM135.514 32.88L135.029 33.0013L136 32.9978L135.514 32.88ZM136.634 29.28L137.106 29.4456L137.108 29.4394L136.634 29.28ZM143.994 7.4V6.9H143.635L143.52 7.24059L143.994 7.4ZM145.994 7.4L146.467 7.56322L146.696 6.9H145.994V7.4ZM136.034 36.24V36.74H136.391L136.507 36.4032L136.034 36.24ZM134.914 36.24L134.442 36.4048L134.559 36.74H134.914V36.24ZM127.514 15.04L127.036 15.187L127.039 15.196L127.042 15.2048L127.514 15.04ZM127.154 14L126.676 14.147L126.682 14.1635L126.688 14.1795L127.154 14ZM126.874 13.08L126.395 13.2237L126.395 13.2237L126.874 13.08ZM126.634 12.4L126.16 12.5581L126.167 12.5778L126.175 12.597L126.634 12.4ZM126.474 11.92L125.984 12.0181L125.99 12.0486L126 12.0781L126.474 11.92ZM126.434 11.68H126.934L125.96 11.5219L126.434 11.68ZM125.194 15L124.731 14.8126L124.729 14.8169L125.194 15ZM116.834 36.24V36.74H117.175L117.3 36.4231L116.834 36.24ZM115.714 36.24L115.242 36.4044L115.359 36.74H115.714V36.24ZM105.674 7.4V6.9H104.971L105.202 7.56439L105.674 7.4ZM107.794 7.4L108.268 7.23898L108.152 6.9H107.794V7.4ZM115.114 28.92L114.641 29.081L114.644 29.0898L115.114 28.92ZM115.954 31.52L115.472 31.653L115.474 31.6606L115.477 31.6682L115.954 31.52ZM116.354 32.8L115.88 32.9581L116.456 34.6861L116.843 32.9062L116.354 32.8ZM118.18 29.2625L126.46 8.1425L125.529 7.7775L117.249 28.8975L118.18 29.2625ZM125.994 8.46H127.154V7.46H125.994V8.46ZM126.681 8.12105L133.921 29.401L134.868 29.079L127.628 7.79895L126.681 8.12105ZM133.92 29.3981C134.48 31.0774 134.848 32.2749 135.029 33.0013L135.999 32.7587C135.808 31.9918 135.429 30.7626 134.869 29.0819L133.92 29.3981ZM136 32.9978C136.208 32.1417 136.575 30.9599 137.106 29.4455L136.163 29.1145C135.627 30.6401 135.248 31.8583 135.028 32.7622L136 32.9978ZM137.108 29.4394L144.468 7.55941L143.52 7.24059L136.16 29.1206L137.108 29.4394ZM143.994 7.9H145.994V6.9H143.994V7.9ZM145.522 7.23678L135.562 36.0768L136.507 36.4032L146.467 7.56322L145.522 7.23678ZM136.034 35.74H134.914V36.74H136.034V35.74ZM135.386 36.0752L127.986 14.8752L127.042 15.2048L134.442 36.4048L135.386 36.0752ZM127.992 14.893C127.882 14.5351 127.758 14.1776 127.621 13.8205L126.688 14.1795C126.817 14.5157 126.933 14.8516 127.036 15.187L127.992 14.893ZM127.632 13.853C127.526 13.5071 127.433 13.2016 127.353 12.9363L126.395 13.2237C126.476 13.4917 126.57 13.7996 126.676 14.147L127.632 13.853ZM127.353 12.9363C127.27 12.6577 127.184 12.4121 127.094 12.203L126.175 12.597C126.245 12.7612 126.319 12.969 126.395 13.2237L127.353 12.9363ZM127.109 12.2419L126.949 11.7619L126 12.0781L126.16 12.5581L127.109 12.2419ZM126.965 11.8219C126.952 11.7575 126.943 11.7102 126.938 11.6778C126.935 11.6615 126.934 11.6521 126.933 11.648C126.933 11.646 126.933 11.6473 126.933 11.651C126.933 11.6536 126.934 11.6644 126.934 11.68H125.934C125.934 11.7418 125.946 11.8095 125.951 11.8422C125.959 11.8898 125.97 11.9491 125.984 12.0181L126.965 11.8219ZM125.96 11.5219C125.644 12.4694 125.235 13.5659 124.731 14.8126L125.658 15.1874C126.167 13.9274 126.585 12.8106 126.909 11.8381L125.96 11.5219ZM124.729 14.8169L116.369 36.0569L117.3 36.4231L125.66 15.1831L124.729 14.8169ZM116.834 35.74H115.714V36.74H116.834V35.74ZM116.187 36.0756L106.147 7.23561L105.202 7.56439L115.242 36.4044L116.187 36.0756ZM105.674 7.9H107.794V6.9H105.674V7.9ZM107.321 7.56101L114.641 29.081L115.588 28.759L108.268 7.23898L107.321 7.56101ZM114.644 29.0898C114.988 30.0408 115.263 30.8949 115.472 31.653L116.436 31.387C116.219 30.5985 115.935 29.7192 115.585 28.7502L114.644 29.0898ZM115.477 31.6682C115.716 32.4373 115.851 32.8716 115.88 32.9581L116.829 32.6419C116.804 32.5684 116.673 32.1494 116.432 31.3718L115.477 31.6682ZM116.843 32.9062C116.965 32.3447 117.399 31.1473 118.176 29.2714L117.252 28.8886C116.483 30.7461 116.01 32.0286 115.866 32.6938L116.843 32.9062ZM155.836 36H155.336V36.5H155.836V36ZM155.836 10.04V9.54H155.336V10.04H155.836ZM167.956 10.04H168.456V9.54H167.956V10.04ZM167.956 11.64V12.14H168.456V11.64H167.956ZM157.676 11.64V11.14H157.176V11.64H157.676ZM157.676 21.08H157.176V21.58H157.676V21.08ZM166.956 21.08H167.456V20.58H166.956V21.08ZM166.956 22.64V23.14H167.456V22.64H166.956ZM157.676 22.64V22.14H157.176V22.64H157.676ZM157.676 34.32H157.176V34.82H157.676V34.32ZM168.356 34.32H168.856V33.82H168.356V34.32ZM168.356 36V36.5H168.856V36H168.356ZM156.336 36V10.04H155.336V36H156.336ZM155.836 10.54H167.956V9.54H155.836V10.54ZM167.456 10.04V11.64H168.456V10.04H167.456ZM167.956 11.14H157.676V12.14H167.956V11.14ZM157.176 11.64V21.08H158.176V11.64H157.176ZM157.676 21.58H166.956V20.58H157.676V21.58ZM166.456 21.08V22.64H167.456V21.08H166.456ZM166.956 22.14H157.676V23.14H166.956V22.14ZM157.176 22.64V34.32H158.176V22.64H157.176ZM157.676 34.82H168.356V33.82H157.676V34.82ZM167.856 34.32V36H168.856V34.32H167.856ZM168.356 35.5H155.836V36.5H168.356V35.5ZM180.119 36H179.619V36.5H180.119V36ZM180.119 10.04V9.54H179.619V10.04H180.119ZM192.239 10.04H192.739V9.54H192.239V10.04ZM192.239 11.64V12.14H192.739V11.64H192.239ZM181.959 11.64V11.14H181.459V11.64H181.959ZM181.959 21.08H181.459V21.58H181.959V21.08ZM191.239 21.08H191.739V20.58H191.239V21.08ZM191.239 22.64V23.14H191.739V22.64H191.239ZM181.959 22.64V22.14H181.459V22.64H181.959ZM181.959 34.32H181.459V34.82H181.959V34.32ZM192.639 34.32H193.139V33.82H192.639V34.32ZM192.639 36V36.5H193.139V36H192.639ZM180.619 36V10.04H179.619V36H180.619ZM180.119 10.54H192.239V9.54H180.119V10.54ZM191.739 10.04V11.64H192.739V10.04H191.739ZM192.239 11.14H181.959V12.14H192.239V11.14ZM181.459 11.64V21.08H182.459V11.64H181.459ZM181.959 21.58H191.239V20.58H181.959V21.58ZM190.739 21.08V22.64H191.739V21.08H190.739ZM191.239 22.14H181.959V23.14H191.239V22.14ZM181.459 22.64V34.32H182.459V22.64H181.459ZM181.959 34.82H192.639V33.82H181.959V34.82ZM192.139 34.32V36H193.139V34.32H192.139ZM192.639 35.5H180.119V36.5H192.639V35.5ZM236.056 9.92L235.86 10.3802L236.316 10.5738L236.514 10.1198L236.056 9.92ZM225.736 16.52L225.346 16.8335L225.35 16.8382L225.736 16.52ZM228.936 19.4L228.654 19.8133L228.66 19.8174L228.936 19.4ZM232.696 21.96L232.983 21.5508L232.983 21.5508L232.696 21.96ZM235.896 25.12L235.489 25.4115L235.489 25.4115L235.896 25.12ZM234.776 34.64L235.077 35.0392L235.081 35.0361L234.776 34.64ZM220.696 34.28L220.28 34.0026L220.013 34.403L220.402 34.6851L220.696 34.28ZM221.656 32.84L221.929 32.4213L221.514 32.1506L221.24 32.5626L221.656 32.84ZM233.256 33.36L233.553 33.7621L233.558 33.7579L233.256 33.36ZM233.776 25.96L233.386 26.2735L233.39 26.2782L233.776 25.96ZM230.576 23.04L230.288 23.4492L230.294 23.4533L230.576 23.04ZM226.816 20.36L227.109 19.9549L227.109 19.9549L226.816 20.36ZM223.616 17.12L224.025 16.8327L224.025 16.8327L223.616 17.12ZM224.376 8.6L224.685 8.99263L224.686 8.99187L224.376 8.6ZM236.736 8.36L237.194 8.55979L237.389 8.11333L236.947 7.90706L236.736 8.36ZM236.251 9.45978C234.249 8.60954 232.249 8.18 230.256 8.18V9.18C232.102 9.18 233.969 9.57713 235.86 10.3802L236.251 9.45978ZM230.256 8.18C228.262 8.18 226.676 8.5461 225.578 9.35803C224.452 10.1908 223.916 11.4354 223.916 13H224.916C224.916 11.6846 225.352 10.7692 226.173 10.162C227.022 9.5339 228.356 9.18 230.256 9.18V8.18ZM223.916 13C223.916 14.3811 224.404 15.6626 225.346 16.8335L226.125 16.2065C225.308 15.1907 224.916 14.1256 224.916 13H223.916ZM225.35 16.8382C226.263 17.9447 227.366 18.9359 228.654 19.8133L229.217 18.9867C227.999 18.1574 226.968 17.2287 226.121 16.2018L225.35 16.8382ZM228.66 19.8174C229.91 20.6413 231.159 21.4919 232.408 22.3692L232.983 21.5508C231.726 20.6681 230.468 19.812 229.211 18.9826L228.66 19.8174ZM232.408 22.3692C233.616 23.2174 234.643 24.2311 235.489 25.4115L236.302 24.8285C235.389 23.5556 234.282 22.4626 232.983 21.5508L232.408 22.3692ZM235.489 25.4115C236.312 26.5575 236.716 27.7898 236.716 29.12H237.716C237.716 27.5702 237.24 26.1358 236.302 24.8285L235.489 25.4115ZM236.716 29.12C236.716 31.4233 235.951 33.103 234.47 34.2439L235.081 35.0361C236.853 33.6703 237.716 31.6701 237.716 29.12H236.716ZM234.475 34.2408C232.964 35.3799 230.831 35.98 228.016 35.98V36.98C230.961 36.98 233.334 36.3535 235.077 35.0392L234.475 34.2408ZM228.016 35.98C225.252 35.98 222.918 35.2714 220.989 33.8749L220.402 34.6851C222.526 36.2219 225.072 36.98 228.016 36.98V35.98ZM221.112 34.5573L222.072 33.1173L221.24 32.5626L220.28 34.0026L221.112 34.5573ZM221.382 33.2587C223.384 34.5651 225.585 35.22 227.976 35.22V34.22C225.779 34.22 223.768 33.6216 221.929 32.4213L221.382 33.2587ZM227.976 35.22C230.325 35.22 232.207 34.7572 233.553 33.7621L232.958 32.9579C231.851 33.7762 230.213 34.22 227.976 34.22V35.22ZM233.558 33.7579C234.926 32.7173 235.596 31.2272 235.596 29.36H234.596C234.596 30.9594 234.039 32.136 232.953 32.9621L233.558 33.7579ZM235.596 29.36C235.596 28.0265 235.103 26.7837 234.161 25.6418L233.39 26.2782C234.208 27.2697 234.596 28.2935 234.596 29.36H235.596ZM234.165 25.6465C233.252 24.5118 232.148 23.5056 230.857 22.6267L230.294 23.4533C231.51 24.2811 232.539 25.2215 233.386 26.2735L234.165 25.6465ZM230.863 22.6308C229.612 21.7522 228.36 20.8602 227.109 19.9549L226.523 20.7651C227.778 21.6731 229.033 22.5678 230.288 23.4492L230.863 22.6308ZM227.109 19.9549C225.9 19.0804 224.873 18.0401 224.025 16.8327L223.206 17.4073C224.119 18.7066 225.225 19.8262 226.523 20.7651L227.109 19.9549ZM224.025 16.8327C223.2 15.6579 222.796 14.4105 222.796 13.08H221.796C221.796 14.6295 222.271 16.0755 223.206 17.4073L224.025 16.8327ZM222.796 13.08C222.796 11.3271 223.428 9.98354 224.685 8.99263L224.066 8.20736C222.549 9.40312 221.796 11.0463 221.796 13.08H222.796ZM224.686 8.99187C225.987 7.96129 227.759 7.42 230.056 7.42V6.42C227.605 6.42 225.591 6.99871 224.065 8.20812L224.686 8.99187ZM230.056 7.42C232.387 7.42 234.541 7.88574 236.524 8.81294L236.947 7.90706C234.824 6.91425 232.524 6.42 230.056 6.42V7.42ZM236.277 8.16021L235.597 9.72021L236.514 10.1198L237.194 8.55979L236.277 8.16021ZM249.491 36H248.991V36.5H249.491V36ZM249.491 10.04V9.54H248.991V10.04H249.491ZM261.611 10.04H262.111V9.54H261.611V10.04ZM261.611 11.64V12.14H262.111V11.64H261.611ZM251.331 11.64V11.14H250.831V11.64H251.331ZM251.331 21.08H250.831V21.58H251.331V21.08ZM260.611 21.08H261.111V20.58H260.611V21.08ZM260.611 22.64V23.14H261.111V22.64H260.611ZM251.331 22.64V22.14H250.831V22.64H251.331ZM251.331 34.32H250.831V34.82H251.331V34.32ZM262.011 34.32H262.511V33.82H262.011V34.32ZM262.011 36V36.5H262.511V36H262.011ZM249.991 36V10.04H248.991V36H249.991ZM249.491 10.54H261.611V9.54H249.491V10.54ZM261.111 10.04V11.64H262.111V10.04H261.111ZM261.611 11.14H251.331V12.14H261.611V11.14ZM250.831 11.64V21.08H251.831V11.64H250.831ZM251.331 21.58H260.611V20.58H251.331V21.58ZM260.111 21.08V22.64H261.111V21.08H260.111ZM260.611 22.14H251.331V23.14H260.611V22.14ZM250.831 22.64V34.32H251.831V22.64H250.831ZM251.331 34.82H262.011V33.82H251.331V34.82ZM261.511 34.32V36H262.511V34.32H261.511ZM262.011 35.5H249.491V36.5H262.011V35.5ZM273.773 36H273.273V36.5H273.773V36ZM273.773 10.04V9.54H273.273V10.04H273.773ZM285.893 10.04H286.393V9.54H285.893V10.04ZM285.893 11.64V12.14H286.393V11.64H285.893ZM275.613 11.64V11.14H275.113V11.64H275.613ZM275.613 21.08H275.113V21.58H275.613V21.08ZM284.893 21.08H285.393V20.58H284.893V21.08ZM284.893 22.64V23.14H285.393V22.64H284.893ZM275.613 22.64V22.14H275.113V22.64H275.613ZM275.613 34.32H275.113V34.82H275.613V34.32ZM286.293 34.32H286.793V33.82H286.293V34.32ZM286.293 36V36.5H286.793V36H286.293ZM274.273 36V10.04H273.273V36H274.273ZM273.773 10.54H285.893V9.54H273.773V10.54ZM285.393 10.04V11.64H286.393V10.04H285.393ZM285.893 11.14H275.613V12.14H285.893V11.14ZM275.113 11.64V21.08H276.113V11.64H275.113ZM275.613 21.58H284.893V20.58H275.613V21.58ZM284.393 21.08V22.64H285.393V21.08H284.393ZM284.893 22.14H275.613V23.14H284.893V22.14ZM275.113 22.64V34.32H276.113V22.64H275.113ZM275.613 34.82H286.293V33.82H275.613V34.82ZM285.793 34.32V36H286.793V34.32H285.793ZM286.293 35.5H273.773V36.5H286.293V35.5ZM320.15 32.24L319.805 32.6015L319.807 32.6031L320.15 32.24ZM319.59 11.2L319.957 11.5394L319.959 11.5377L319.59 11.2ZM339.35 8.52L339.826 8.67454L339.98 8.19911L339.505 8.04451L339.35 8.52ZM338.83 10.12L338.687 10.5989L339.155 10.7394L339.306 10.2745L338.83 10.12ZM321.07 12.44L320.696 12.1091L320.696 12.1091L321.07 12.44ZM321.59 30.92L321.237 31.2736L321.24 31.2772L321.59 30.92ZM339.03 33.28L339.488 33.0782L339.29 32.6294L338.837 32.8188L339.03 33.28ZM339.63 34.64L339.881 35.0727L340.269 34.8482L340.088 34.4382L339.63 34.64ZM335.63 36L335.535 35.5091L335.534 35.5094L335.63 36ZM330.87 35.98C326.837 35.98 323.387 34.6145 320.494 31.8769L319.807 32.6031C322.887 35.5188 326.584 36.98 330.87 36.98V35.98ZM320.496 31.8785C317.609 29.1202 316.17 25.7445 316.17 21.72H315.17C315.17 26.0155 316.719 29.6531 319.805 32.6015L320.496 31.8785ZM316.17 21.72C316.17 17.6472 317.437 14.2653 319.957 11.5394L319.223 10.8606C316.517 13.7881 315.17 17.4195 315.17 21.72H316.17ZM319.959 11.5377C322.472 8.79397 325.682 7.42 329.63 7.42V6.42C325.419 6.42 321.935 7.89937 319.222 10.8623L319.959 11.5377ZM329.63 7.42C332.774 7.42 335.962 7.9438 339.196 8.99549L339.505 8.04451C336.179 6.96287 332.887 6.42 329.63 6.42V7.42ZM338.875 8.36546L338.355 9.96546L339.306 10.2745L339.826 8.67454L338.875 8.36546ZM338.974 9.64109C335.734 8.66901 332.619 8.18 329.63 8.18V9.18C332.509 9.18 335.527 9.65099 338.687 10.5989L338.974 9.64109ZM329.63 8.18C326.001 8.18 323.008 9.48956 320.696 12.1091L321.445 12.7709C323.559 10.3771 326.273 9.18 329.63 9.18V8.18ZM320.696 12.1091C318.394 14.7151 317.25 17.9026 317.25 21.64H318.25C318.25 18.1241 319.32 15.1782 321.445 12.7709L320.696 12.1091ZM317.25 21.64C317.25 25.399 318.583 28.6196 321.237 31.2736L321.944 30.5664C319.478 28.1004 318.25 25.1343 318.25 21.64H317.25ZM321.24 31.2772C323.92 33.9015 327.139 35.22 330.87 35.22V34.22C327.402 34.22 324.434 33.0052 321.94 30.5628L321.24 31.2772ZM330.87 35.22C334.066 35.22 336.855 34.7326 339.223 33.7412L338.837 32.8188C336.619 33.7474 333.968 34.22 330.87 34.22V35.22ZM338.573 33.4818L339.173 34.8418L340.088 34.4382L339.488 33.0782L338.573 33.4818ZM339.38 34.2073C338.431 34.7567 337.156 35.1955 335.535 35.5091L335.725 36.4909C337.411 36.1645 338.803 35.6966 339.881 35.0727L339.38 34.2073ZM335.534 35.5094C333.937 35.8236 332.382 35.98 330.87 35.98V36.98C332.452 36.98 334.071 36.8164 335.727 36.4906L335.534 35.5094ZM361.075 30.2L360.614 30.006L360.614 30.0064L361.075 30.2ZM370.675 7.4V6.9H370.343L370.214 7.20597L370.675 7.4ZM372.715 7.4L373.175 7.59642L373.472 6.9H372.715V7.4ZM360.395 36.24V36.74H360.725L360.855 36.4364L360.395 36.24ZM359.275 36.24L358.815 36.437L358.945 36.74H359.275V36.24ZM346.915 7.4V6.9H346.157L346.455 7.59696L346.915 7.4ZM349.075 7.4L349.536 7.20539L349.407 6.9H349.075V7.4ZM358.675 30.12L359.138 29.9304L359.136 29.9254L358.675 30.12ZM359.915 33.48L359.431 33.6062L360.4 33.6013L359.915 33.48ZM361.536 30.394L371.136 7.59403L370.214 7.20597L360.614 30.006L361.536 30.394ZM370.675 7.9H372.715V6.9H370.675V7.9ZM372.255 7.20358L359.935 36.0436L360.855 36.4364L373.175 7.59642L372.255 7.20358ZM360.395 35.74H359.275V36.74H360.395V35.74ZM359.735 36.043L347.375 7.20304L346.455 7.59696L358.815 36.437L359.735 36.043ZM346.915 7.9H349.075V6.9H346.915V7.9ZM348.614 7.59461L358.214 30.3146L359.136 29.9254L349.536 7.20539L348.614 7.59461ZM358.212 30.3096C358.88 31.9397 359.281 33.03 359.431 33.6062L360.399 33.3538C360.229 32.7033 359.803 31.5537 359.138 29.9304L358.212 30.3096ZM360.4 33.6013C360.605 32.7832 360.98 31.7164 361.536 30.3936L360.614 30.0064C360.05 31.3503 359.652 32.4701 359.43 33.3587L360.4 33.6013ZM383.025 36H382.525V36.5H383.025V36ZM383.025 7.4V6.9H382.525V7.4H383.025ZM396.305 7.4H396.805V6.9H396.305V7.4ZM396.305 9.08V9.58H396.805V9.08H396.305ZM384.945 9.08V8.58H384.445V9.08H384.945ZM384.945 19.6H384.445V20.1H384.945V19.6ZM395.225 19.6H395.725V19.1H395.225V19.6ZM395.225 21.24V21.74H395.725V21.24H395.225ZM384.945 21.24V20.74H384.445V21.24H384.945ZM384.945 34.32H384.445V34.82H384.945V34.32ZM396.745 34.32H397.245V33.82H396.745V34.32ZM396.745 36V36.5H397.245V36H396.745ZM383.525 36V7.4H382.525V36H383.525ZM383.025 7.9H396.305V6.9H383.025V7.9ZM395.805 7.4V9.08H396.805V7.4H395.805ZM396.305 8.58H384.945V9.58H396.305V8.58ZM384.445 9.08V19.6H385.445V9.08H384.445ZM384.945 20.1H395.225V19.1H384.945V20.1ZM394.725 19.6V21.24H395.725V19.6H394.725ZM395.225 20.74H384.945V21.74H395.225V20.74ZM384.445 21.24V34.32H385.445V21.24H384.445ZM384.945 34.82H396.745V33.82H384.945V34.82ZM396.245 34.32V36H397.245V34.32H396.245ZM396.745 35.5H383.025V36.5H396.745V35.5ZM410.072 12.2L409.768 11.8028L409.768 11.8028L410.072 12.2ZM410.512 19L410.859 18.6409L410.857 18.6385L410.512 19ZM413.792 21.64L413.505 22.0497L413.514 22.056L413.792 21.64ZM416.592 23.6L416.282 23.9924L416.282 23.9924L416.592 23.6ZM418.432 25.24L418.785 24.8864L418.778 24.8798L418.432 25.24ZM418.152 34.8L418.455 35.1974L418.456 35.1966L418.152 34.8ZM405.312 34.4L404.899 34.1172L404.633 34.506L405.005 34.795L405.312 34.4ZM406.272 33L406.552 32.5859L406.14 32.3075L405.859 32.7172L406.272 33ZM416.752 33.56L416.453 33.1589L416.449 33.1623L416.752 33.56ZM416.752 26.28L416.398 26.6336L416.402 26.6377L416.752 26.28ZM413.512 23.68L413.225 24.0896L413.229 24.0923L413.512 23.68ZM410.712 21.68L410.399 22.0704L410.405 22.0753L410.412 22.08L410.712 21.68ZM408.832 20L408.478 20.3536L408.485 20.3602L408.832 20ZM408.672 11.08L408.361 10.688L408.357 10.6912L408.672 11.08ZM419.992 10.88L420.446 11.0887L420.649 10.6465L420.213 10.4315L419.992 10.88ZM419.312 12.36L419.094 12.8101L419.553 13.0323L419.766 12.5687L419.312 12.36ZM413.592 10.66C412.071 10.66 410.782 11.027 409.768 11.8028L410.375 12.5972C411.174 11.9863 412.232 11.66 413.592 11.66V10.66ZM409.768 11.8028C408.724 12.6009 408.212 13.7285 408.212 15.12H409.212C409.212 14.0048 409.606 13.1857 410.375 12.5972L409.768 11.8028ZM408.212 15.12C408.212 16.7177 408.884 18.1362 410.166 19.3615L410.857 18.6385C409.739 17.5705 409.212 16.4023 409.212 15.12H408.212ZM410.164 19.3591C411.042 20.2095 412.157 21.1062 413.505 22.0496L414.078 21.2304C412.759 20.3071 411.688 19.4438 410.859 18.6409L410.164 19.3591ZM413.514 22.056C414.875 22.9631 415.793 23.6064 416.282 23.9924L416.901 23.2076C416.377 22.7936 415.428 22.1302 414.069 21.224L413.514 22.056ZM416.282 23.9924C416.771 24.3784 417.371 24.9128 418.085 25.6002L418.778 24.8798C418.052 24.1806 417.426 23.6216 416.901 23.2076L416.282 23.9924ZM418.078 25.5936C419.299 26.815 419.892 28.1976 419.892 29.76H420.892C420.892 27.9091 420.177 26.2783 418.785 24.8864L418.078 25.5936ZM419.892 29.76C419.892 31.8487 419.195 33.3687 417.847 34.4034L418.456 35.1966C420.095 33.938 420.892 32.098 420.892 29.76H419.892ZM417.848 34.4026C416.5 35.4322 414.556 35.98 411.952 35.98V36.98C414.681 36.98 416.87 36.4078 418.455 35.1974L417.848 34.4026ZM411.952 35.98C409.403 35.98 407.303 35.3126 405.618 34.005L405.005 34.795C406.894 36.2607 409.22 36.98 411.952 36.98V35.98ZM405.724 34.6828L406.684 33.2828L405.859 32.7172L404.899 34.1172L405.724 34.6828ZM405.991 33.4141C407.881 34.6921 409.897 35.34 412.032 35.34V34.34C410.113 34.34 408.289 33.7613 406.552 32.5859L405.991 33.4141ZM412.032 35.34C414.121 35.34 415.817 34.9009 417.055 33.9577L416.449 33.1623C415.447 33.9257 413.995 34.34 412.032 34.34V35.34ZM417.05 33.9611C418.335 33.0048 418.972 31.6496 418.972 29.96H417.972C417.972 31.3637 417.461 32.4085 416.453 33.1589L417.05 33.9611ZM418.972 29.96C418.972 28.4654 418.323 27.116 417.101 25.9223L416.402 26.6377C417.473 27.684 417.972 28.788 417.972 29.96H418.972ZM417.105 25.9264C416.276 25.0974 415.169 24.2113 413.794 23.2677L413.229 24.0923C414.574 25.0153 415.627 25.8626 416.398 26.6336L417.105 25.9264ZM413.798 23.2704C412.465 22.337 411.538 21.6746 411.012 21.28L410.412 22.08C410.952 22.4854 411.892 23.1563 413.225 24.0896L413.798 23.2704ZM411.024 21.2896C410.507 20.8757 409.892 20.3269 409.178 19.6398L408.485 20.3602C409.211 21.0597 409.85 21.6309 410.399 22.0704L411.024 21.2896ZM409.185 19.6464C407.911 18.3723 407.292 16.9233 407.292 15.28H406.292C406.292 17.2101 407.032 18.9077 408.478 20.3536L409.185 19.6464ZM407.292 15.28C407.292 13.6257 407.864 12.3761 408.986 11.4688L408.357 10.6912C406.973 11.8106 406.292 13.361 406.292 15.28H407.292ZM408.982 11.472C410.146 10.5506 411.783 10.06 413.952 10.06V9.06C411.64 9.06 409.757 9.58271 408.361 10.688L408.982 11.472ZM413.952 10.06C416.125 10.06 418.061 10.4864 419.771 11.3285L420.213 10.4315C418.349 9.51359 416.259 9.06 413.952 9.06V10.06ZM419.537 10.6712L418.857 12.1512L419.766 12.5687L420.446 11.0887L419.537 10.6712ZM419.529 11.9099C417.797 11.0718 415.814 10.66 413.592 10.66V11.66C415.689 11.66 417.519 12.0482 419.094 12.8101L419.529 11.9099Z" fill="white"/>
<defs>
<linearGradient id="paint0_linear_3_41" x1="-2.11116" y1="14.591" x2="63.523" y2="52.435" gradientUnits="userSpaceOnUse">
<stop stop-color="#2298BD"/>
<stop offset="1" stop-color="#0ED7B5"/>
</linearGradient>
</defs>
</svg>
