<svg width="152" height="152" viewBox="0 0 152 152" fill="none" xmlns="http://www.w3.org/2000/svg">
<g clip-path="url(#clip0_9_59)">
<path d="M23.75 0C22.173 0 20.615 0.152 19.1235 0.456L20.9665 9.766C21.8835 9.5869 22.8157 9.49781 23.75 9.5H28.101V0H23.75ZM45.524 0H36.8125V9.5H45.524V0ZM62.9375 0H54.226V9.5H62.9375V0ZM80.351 0H71.649V9.5H80.351V0ZM97.774 0H89.0625V9.5H97.774V0ZM115.188 0H106.476V9.5H115.188V0ZM128.25 0H123.899V9.5H128.25C129.2 9.5 130.141 9.595 131.034 9.7755L132.877 0.456C131.353 0.15367 129.803 0.000944781 128.25 0V0ZM148.001 10.545C146.264 7.9558 144.037 5.73204 141.445 3.9995L136.163 11.894C137.721 12.939 139.061 14.2785 140.106 15.8365L147.991 10.5545L148.001 10.545ZM10.545 3.9995C7.9558 5.7358 5.73204 7.96278 3.9995 10.5545L11.894 15.8365C12.939 14.2785 14.2785 12.939 15.8365 11.894L10.545 4.009V3.9995ZM152 23.75C152 22.173 151.848 20.615 151.544 19.1235L142.234 20.9665C142.405 21.8595 142.5 22.7905 142.5 23.75V28.101H152V23.75ZM0.456 19.1235C0.15367 20.6471 0.000944781 22.1967 0 23.75L0 28.101H9.5V23.75C9.5 22.8 9.595 21.8595 9.7755 20.9665L0.456 19.1235ZM0 36.8125V45.524H9.5V36.8125H0ZM152 45.524V36.8125H142.5V45.524H152ZM0 54.226V62.9375H9.5V54.226H0ZM152 62.9375V54.226H142.5V62.9375H152ZM0 71.649V80.351H9.5V71.649H0ZM142.5 80.351H152V71.649H142.5V80.351ZM0 89.0625V97.774H9.5V89.0625H0ZM152 97.774V89.0625H142.5V97.774H152ZM0 106.476V115.188H9.5V106.476H0ZM152 115.188V106.476H142.5V115.188H152ZM0 123.899V128.25C0 129.827 0.152 131.385 0.456 132.877L9.766 131.034C9.5869 130.117 9.49781 129.184 9.5 128.25V123.899H0ZM152 128.25V123.899H142.5V128.25C142.5 129.2 142.405 130.141 142.225 131.034L151.544 132.877C151.848 131.376 152 129.837 152 128.25ZM3.9995 141.455C5.738 144.039 7.961 146.262 10.5545 148.001L15.8365 140.106C14.2771 139.062 12.9377 137.723 11.894 136.163L4.009 141.445L3.9995 141.455ZM141.455 148.001C144.039 146.262 146.262 144.039 148.001 141.445L140.106 136.163C139.061 137.721 137.721 139.061 136.163 140.106L141.445 147.991L141.455 148.001ZM19.1235 151.544C20.6245 151.848 22.1635 152 23.75 152H28.101V142.5H23.75C22.8 142.5 21.8595 142.405 20.9665 142.225L19.1235 151.544ZM128.25 152C129.827 152 131.385 151.848 132.877 151.544L131.034 142.234C130.117 142.413 129.184 142.502 128.25 142.5H123.899V152H128.25ZM36.8125 152H45.524V142.5H36.8125V152ZM54.226 152H62.9375V142.5H54.226V152ZM71.649 142.5V152H80.351V142.5H71.649ZM89.0625 152H97.774V142.5H89.0625V152ZM106.476 152H115.188V142.5H106.476V152ZM80.75 42.75C80.75 41.4902 80.2496 40.282 79.3588 39.3912C78.468 38.5004 77.2598 38 76 38C74.7402 38 73.532 38.5004 72.6412 39.3912C71.7504 40.282 71.25 41.4902 71.25 42.75V71.25H42.75C41.4902 71.25 40.282 71.7504 39.3912 72.6412C38.5004 73.532 38 74.7402 38 76C38 77.2598 38.5004 78.468 39.3912 79.3588C40.282 80.2496 41.4902 80.75 42.75 80.75H71.25V109.25C71.25 110.51 71.7504 111.718 72.6412 112.609C73.532 113.5 74.7402 114 76 114C77.2598 114 78.468 113.5 79.3588 112.609C80.2496 111.718 80.75 110.51 80.75 109.25V80.75H109.25C110.51 80.75 111.718 80.2496 112.609 79.3588C113.5 78.468 114 77.2598 114 76C114 74.7402 113.5 73.532 112.609 72.6412C111.718 71.7504 110.51 71.25 109.25 71.25H80.75V42.75Z" fill="#6D6D6D"/>
</g>
<defs>
<clipPath id="clip0_9_59">
<rect width="152" height="152" fill="white"/>
</clipPath>
</defs>
</svg>
